<svg width="191" height="54" viewBox="0 0 191 54" fill="none" xmlns="http://www.w3.org/2000/svg">
<path d="M55.7561 42.4195V2.71485H62.8051V20.6646L61.3457 19.0103C62.5573 17.3743 64.0074 16.1335 65.6962 15.288C67.3851 14.4424 69.2024 14.0196 71.1482 14.0196C73.6814 14.0196 75.7832 14.5251 77.4537 15.5361C79.1425 16.5471 80.4091 17.8614 81.2535 19.479C82.0979 21.0966 82.5201 22.8061 82.5201 24.6075V42.4195H75.4711V26.6203C75.4711 24.8005 74.9113 23.3208 73.7915 22.1811C72.6901 21.0415 71.1757 20.4716 69.2482 20.4716C67.9633 20.4533 66.8344 20.7198 65.8615 21.2712C64.8886 21.8227 64.1359 22.6131 63.6036 23.6425C63.0712 24.6535 62.8051 25.8391 62.8051 27.1994V42.4195H55.7561Z" fill="#FF8052"/>
<path d="M94.1897 43.2467C92.3174 43.2467 90.6561 42.8882 89.2059 42.1713C87.7557 41.4544 86.6176 40.4434 85.7916 39.1383C84.9655 37.8148 84.5525 36.2524 84.5525 34.451C84.5525 32.9069 84.938 31.5283 85.709 30.3151C86.48 29.1019 87.664 28.1001 89.261 27.3097C90.858 26.5009 92.8956 25.9586 95.3737 25.6829C97.8702 25.4071 100.826 25.4439 104.24 25.7932L104.35 30.4529C102.111 30.1037 100.156 29.9474 98.4852 29.9842C96.8147 30.021 95.4288 30.214 94.3274 30.5632C93.2444 30.9125 92.4275 31.3904 91.8768 31.997C91.3445 32.6036 91.0783 33.3113 91.0783 34.1201C91.0783 35.3333 91.5189 36.2708 92.4 36.9325C93.2811 37.5759 94.4834 37.8976 96.007 37.8976C97.3104 37.8976 98.476 37.6586 99.504 37.1807C100.55 36.7027 101.376 36.0318 101.982 35.1679C102.588 34.2855 102.891 33.247 102.891 32.0522V25.0763C102.891 23.9182 102.643 22.9164 102.147 22.0709C101.67 21.2069 100.936 20.5452 99.9445 20.0856C98.9533 19.6077 97.6775 19.3687 96.1172 19.3687C94.6854 19.3687 93.2627 19.5893 91.8493 20.0305C90.4542 20.4533 89.1417 21.115 87.9118 22.0157L86.0119 16.9699C87.7557 15.8119 89.5914 14.9847 91.5189 14.4884C93.4463 13.9921 95.3095 13.7439 97.1084 13.7439C99.6784 13.7439 101.9 14.1483 103.772 14.9571C105.663 15.7659 107.113 17.0067 108.122 18.6794C109.15 20.3338 109.664 22.4385 109.664 24.9936V42.4195H103.441V39.2762C102.524 40.5445 101.257 41.528 99.6417 42.2265C98.0263 42.9066 96.209 43.2467 94.1897 43.2467Z" fill="#FF8052"/>
<path d="M111.676 54V14.8468H117.899V18.4864C118.963 17.1445 120.331 16.0692 122.001 15.2604C123.672 14.4332 125.691 14.0196 128.059 14.0196C130.721 14.0196 133.089 14.6446 135.163 15.8946C137.237 17.1445 138.862 18.8724 140.037 21.0782C141.23 23.2657 141.826 25.784 141.826 28.6331C141.826 30.6735 141.487 32.576 140.808 34.3407C140.128 36.1053 139.174 37.6586 137.944 39.0005C136.714 40.324 135.246 41.3625 133.538 42.1162C131.85 42.8698 129.986 43.2467 127.949 43.2467C125.966 43.2467 124.204 42.9066 122.662 42.2265C121.139 41.528 119.817 40.5813 118.697 39.3865V54H111.676ZM126.765 37.0704C128.325 37.0704 129.711 36.7303 130.923 36.0502C132.134 35.3517 133.089 34.3775 133.786 33.1275C134.484 31.8592 134.833 30.361 134.833 28.6331C134.833 26.9053 134.484 25.4071 133.786 24.1388C133.089 22.8705 132.125 21.8962 130.895 21.2161C129.684 20.536 128.307 20.1959 126.765 20.1959C125.205 20.1959 123.819 20.536 122.607 21.2161C121.396 21.8962 120.441 22.8705 119.743 24.1388C119.046 25.4071 118.697 26.9053 118.697 28.6331C118.697 30.361 119.037 31.8592 119.716 33.1275C120.413 34.3775 121.368 35.3517 122.58 36.0502C123.809 36.7303 125.205 37.0704 126.765 37.0704Z" fill="#F5F5F5"/>
<path d="M143.799 42.4195V14.8468H150.848V18.4588C151.803 16.8412 152.996 15.6924 154.428 15.0123C155.878 14.3321 157.438 13.9921 159.109 13.9921C159.696 13.9921 160.237 14.0196 160.733 14.0748C161.229 14.1299 161.706 14.2126 162.165 14.3229L161.284 21.6021C160.715 21.3999 160.118 21.2529 159.494 21.161C158.888 21.0507 158.282 20.9955 157.677 20.9955C155.694 20.9955 154.06 21.5929 152.775 22.7877C151.491 23.9642 150.848 25.6185 150.848 27.7508V42.4195H143.799Z" fill="#F5F5F5"/>
<path d="M175.938 43.2467C173.001 43.2467 170.395 42.5849 168.118 41.2614C165.861 39.9196 164.089 38.1457 162.804 35.9399C161.519 33.7157 160.877 31.2801 160.877 28.6331C160.877 26.6847 161.244 24.8281 161.978 23.0635C162.712 21.2988 163.75 19.7456 165.09 18.4037C166.448 17.0434 168.045 15.9773 169.881 15.2053C171.716 14.4148 173.736 14.0196 175.938 14.0196C178.857 14.0196 181.445 14.6814 183.703 16.0049C185.979 17.3284 187.76 19.1022 189.045 21.3264C190.348 23.5506 191 25.9862 191 28.6331C191 30.5816 190.624 32.4382 189.871 34.2028C189.137 35.9491 188.1 37.5024 186.76 38.8626C185.42 40.2229 183.832 41.2982 181.996 42.0886C180.16 42.8606 178.141 43.2467 175.938 43.2467ZM175.911 37.0704C177.471 37.0704 178.857 36.7303 180.069 36.0502C181.299 35.3517 182.262 34.3775 182.96 33.1275C183.657 31.8592 184.006 30.361 184.006 28.6331C184.006 26.9053 183.657 25.4071 182.96 24.1388C182.262 22.8705 181.308 21.8962 180.096 21.2161C178.885 20.536 177.499 20.1959 175.938 20.1959C174.378 20.1959 172.983 20.536 171.753 21.2161C170.542 21.8962 169.587 22.8705 168.889 24.1388C168.21 25.4071 167.871 26.9053 167.871 28.6331C167.871 30.361 168.219 31.8592 168.917 33.1275C169.615 34.3775 170.569 35.3517 171.781 36.0502C172.992 36.7303 174.369 37.0704 175.911 37.0704Z" fill="#F5F5F5"/>
<path d="M23.9756 0.793419L42.1083 18.7178V18.7194C43.1803 19.7791 44.0559 21.8695 44.0559 23.3665V34.3099C44.0559 34.3099 41.5264 34.3099 38.7861 34.3099C36.0457 34.3099 34.781 36.3893 34.781 38.2607C34.781 40.1322 34.781 42.4177 34.781 42.4177H2.75349C1.23907 42.4177 0 41.1928 0 39.6958V23.3647C0 21.8677 0.877448 19.7757 1.94764 18.7178L20.0821 0.793419C21.1523 -0.264473 22.9054 -0.264473 23.9756 0.793419Z" fill="#F5F5F5"/>
<path d="M44.0559 35.9734V39.9242C44.0559 41.3023 42.9234 42.4195 41.5264 42.4195H36.4673V38.4686C36.4673 37.0906 37.5998 35.9734 38.9968 35.9734H44.0559Z" fill="#FF8052"/>
<path d="M31.3475 25.6638C31.3475 30.935 27.0801 35.2082 21.8161 35.2082C16.5521 35.2082 12.2848 30.935 12.2848 25.6638C12.2848 20.3926 16.5521 16.1194 21.8161 16.1194C27.0801 16.1194 31.3475 20.3926 31.3475 25.6638Z" fill="#251E1C"/>
</svg>
