<svg width="77" height="22" viewBox="0 0 77 22" fill="none" xmlns="http://www.w3.org/2000/svg">
<path d="M21.9896 17.282V1.10605H24.8567V8.41893L24.2631 7.74493C24.7559 7.07842 25.3458 6.57292 26.0327 6.22844C26.7196 5.88395 27.4588 5.7117 28.2503 5.7117C29.2807 5.7117 30.1356 5.91765 30.815 6.32954C31.502 6.74142 32.0172 7.27688 32.3606 7.9359C32.7041 8.59492 32.8758 9.29138 32.8758 10.0253V17.282H30.0087V10.8453C30.0087 10.1039 29.7809 9.50107 29.3255 9.03676C28.8775 8.57245 28.2615 8.3403 27.4775 8.3403C26.9548 8.33281 26.4956 8.4414 26.0999 8.66606C25.7042 8.89073 25.3981 9.21275 25.1815 9.63213C24.965 10.044 24.8567 10.527 24.8567 11.0812V17.282H21.9896Z" fill="#FF8052"/>
<path d="M37.6224 17.619C36.8609 17.619 36.1851 17.473 35.5953 17.1809C35.0054 16.8888 34.5425 16.477 34.2065 15.9452C33.8705 15.406 33.7025 14.7695 33.7025 14.0356C33.7025 13.4065 33.8593 12.8449 34.1729 12.3506C34.4865 11.8563 34.9681 11.4482 35.6177 11.1262C36.2673 10.7966 37.0961 10.5757 38.104 10.4634C39.1195 10.3511 40.3216 10.366 41.7104 10.5083L41.7552 12.4068C40.8443 12.2645 40.0491 12.2008 39.3696 12.2158C38.6902 12.2308 38.1264 12.3094 37.6784 12.4517C37.2379 12.594 36.9057 12.7887 36.6817 13.0358C36.4651 13.283 36.3569 13.5713 36.3569 13.9008C36.3569 14.3951 36.5361 14.777 36.8945 15.0466C37.2528 15.3087 37.7419 15.4397 38.3616 15.4397C38.8918 15.4397 39.3659 15.3424 39.784 15.1477C40.2096 14.953 40.5456 14.6796 40.792 14.3277C41.0384 13.9682 41.1616 13.5451 41.1616 13.0583V10.2163C41.1616 9.74446 41.0608 9.33632 40.8592 8.99183C40.6651 8.63985 40.3664 8.37025 39.9632 8.18303C39.56 7.98832 39.0411 7.89097 38.4064 7.89097C37.824 7.89097 37.2454 7.98083 36.6705 8.16057C36.103 8.33281 35.5691 8.60241 35.0689 8.96936L34.2961 6.91367C35.0054 6.44187 35.7521 6.10487 36.5361 5.90267C37.32 5.70047 38.0779 5.59937 38.8096 5.59937C39.8549 5.59937 40.7584 5.76413 41.52 6.09364C42.289 6.42315 42.8789 6.92865 43.2896 7.61013C43.7077 8.28413 43.9167 9.14161 43.9167 10.1826V17.282H41.3856V16.0014C41.0123 16.5181 40.4971 16.9188 39.84 17.2034C39.1829 17.4805 38.4438 17.619 37.6224 17.619Z" fill="#FF8052"/>
<path d="M44.7349 22V6.0487H47.266V7.5315C47.6991 6.98481 48.2553 6.54671 48.9348 6.2172C49.6143 5.8802 50.4356 5.7117 51.3988 5.7117C52.4814 5.7117 53.4446 5.96632 54.2883 6.47557C55.132 6.98481 55.7928 7.68877 56.2707 8.58743C56.756 9.47861 56.9987 10.5046 56.9987 11.6654C56.9987 12.4966 56.8605 13.2717 56.5843 13.9907C56.308 14.7096 55.9198 15.3424 55.4195 15.8891C54.9192 16.4283 54.3219 16.8514 53.6275 17.1584C52.9406 17.4655 52.1827 17.619 51.354 17.619C50.5476 17.619 49.8308 17.4805 49.2036 17.2034C48.5839 16.9188 48.0463 16.5331 47.5908 16.0463V22H44.7349ZM50.8724 15.1027C51.507 15.1027 52.0707 14.9642 52.5635 14.6871C53.0563 14.4025 53.4446 14.0056 53.7283 13.4964C54.0121 12.9797 54.1539 12.3693 54.1539 11.6654C54.1539 10.9614 54.0121 10.3511 53.7283 9.83433C53.4446 9.3176 53.0526 8.92068 52.5523 8.6436C52.0595 8.36651 51.4996 8.22796 50.8724 8.22796C50.2377 8.22796 49.674 8.36651 49.1812 8.6436C48.6884 8.92068 48.3001 9.3176 48.0164 9.83433C47.7327 10.3511 47.5908 10.9614 47.5908 11.6654C47.5908 12.3693 47.7289 12.9797 48.0052 13.4964C48.2889 14.0056 48.6772 14.4025 49.17 14.6871C49.6703 14.9642 50.2377 15.1027 50.8724 15.1027Z" fill="#251E1C"/>
<path d="M57.801 17.282V6.0487H60.6682V7.52027C61.0565 6.86125 61.5418 6.39319 62.1242 6.1161C62.714 5.83902 63.3487 5.70047 64.0281 5.70047C64.2671 5.70047 64.4873 5.7117 64.6889 5.73417C64.8905 5.75664 65.0847 5.79034 65.2713 5.83527L64.9129 8.80086C64.6815 8.71849 64.4388 8.65858 64.1849 8.62113C63.9385 8.5762 63.6921 8.55373 63.4458 8.55373C62.6394 8.55373 61.9748 8.79712 61.4522 9.2839C60.9295 9.76318 60.6682 10.4372 60.6682 11.3059V17.282H57.801Z" fill="#251E1C"/>
<path d="M70.8737 17.619C69.679 17.619 68.6188 17.3494 67.6929 16.8102C66.7746 16.2635 66.054 15.5408 65.5314 14.6422C65.0087 13.736 64.7474 12.7438 64.7474 11.6654C64.7474 10.8715 64.8967 10.1152 65.1954 9.39623C65.494 8.6773 65.9159 8.04449 66.461 7.4978C67.0135 6.94362 67.6631 6.50927 68.4097 6.19474C69.1564 5.87271 69.9777 5.7117 70.8737 5.7117C72.0609 5.7117 73.1137 5.9813 74.032 6.5205C74.9579 7.0597 75.6822 7.78238 76.2048 8.68853C76.7349 9.59468 77 10.587 77 11.6654C77 12.4592 76.8469 13.2156 76.5408 13.9345C76.2421 14.6459 75.8203 15.2787 75.2752 15.8329C74.7302 16.3871 74.0843 16.8252 73.3377 17.1472C72.591 17.4617 71.7697 17.619 70.8737 17.619ZM70.8625 15.1027C71.4971 15.1027 72.0609 14.9642 72.5537 14.6871C73.0539 14.4025 73.4459 14.0056 73.7296 13.4964C74.0134 12.9797 74.1552 12.3693 74.1552 11.6654C74.1552 10.9614 74.0134 10.3511 73.7296 9.83433C73.4459 9.3176 73.0577 8.92068 72.5649 8.6436C72.0721 8.36651 71.5083 8.22796 70.8737 8.22796C70.239 8.22796 69.6716 8.36651 69.1713 8.6436C68.6785 8.92068 68.2903 9.3176 68.0065 9.83433C67.7303 10.3511 67.5921 10.9614 67.5921 11.6654C67.5921 12.3693 67.734 12.9797 68.0177 13.4964C68.3015 14.0056 68.6897 14.4025 69.1825 14.6871C69.6753 14.9642 70.2353 15.1027 70.8625 15.1027Z" fill="#251E1C"/>
<path d="M9.75207 0.323245L17.1275 7.62577V7.62643C17.5636 8.05817 17.9197 8.90981 17.9197 9.5197V13.9781C17.9197 13.9781 16.8909 13.9781 15.7762 13.9781C14.6616 13.9781 14.1472 14.8253 14.1472 15.5877C14.1472 16.3501 14.1472 17.2813 14.1472 17.2813H1.11998C0.503992 17.2813 0 16.7823 0 16.1724V9.51896C0 8.90906 0.356902 8.05676 0.792202 7.62577L8.16841 0.323245C8.60371 -0.107748 9.31677 -0.107748 9.75207 0.323245Z" fill="#251E1C"/>
<path d="M17.9197 14.6558V16.2654C17.9197 16.8269 17.4591 17.282 16.8908 17.282H14.8331V15.6724C14.8331 15.111 15.2937 14.6558 15.862 14.6558H17.9197Z" fill="#FF8052"/>
<path d="M12.406 10.542C12.406 12.4509 10.8631 13.9984 8.95986 13.9984C7.05664 13.9984 5.51376 12.4509 5.51376 10.542C5.51376 8.63311 7.05664 7.08562 8.95986 7.08562C10.8631 7.08562 12.406 8.63311 12.406 10.542Z" fill="#E0E0E0"/>
</svg>
