<svg width="360" height="129" viewBox="0 0 360 129" fill="none" xmlns="http://www.w3.org/2000/svg">
<path d="M159 62H157.5V63.5V92.5V94H159H173.75C176.649 94 179 96.3505 179 99.25C179 102.149 176.649 104.5 173.75 104.5H163.971C160.39 104.5 156.956 105.922 154.425 108.454L149.454 113.425C147.485 115.394 144.814 116.5 142.029 116.5H111C105.201 116.5 100.5 111.799 100.5 106V50C100.5 44.201 105.201 39.5 111 39.5H142.029C144.814 39.5 147.485 40.6062 149.454 42.5754L154.425 47.5459C156.956 50.0777 160.39 51.5 163.971 51.5H173.75C176.649 51.5 179 53.8505 179 56.75C179 59.6495 176.649 62 173.75 62H159Z" fill="#FF8052" stroke="#EFEFEF" stroke-width="3"/>
<path d="M259.5 50C259.5 44.201 254.799 39.5 249 39.5H209C205.41 39.5 202.5 42.4101 202.5 46C202.5 49.5899 205.41 52.5 209 52.5H226.75C229.097 52.5 231 54.4028 231 56.75C231 59.0972 229.097 61 226.75 61H213C207.201 61 202.5 65.701 202.5 71.5V84.5C202.5 90.299 207.201 95 213 95H226.75C229.097 95 231 96.9028 231 99.25C231 101.597 229.097 103.5 226.75 103.5H209C205.41 103.5 202.5 106.41 202.5 110C202.5 113.59 205.41 116.5 209 116.5H249C254.799 116.5 259.5 111.799 259.5 106V50Z" fill="#FF8052" stroke="#EFEFEF" stroke-width="3"/>
<path d="M0 112H52.016C55.5639 112 57.9831 108.408 56.6492 105.12L48.4369 84.8798C47.103 81.5923 49.5222 78 53.0701 78H99" stroke="#E0E0E0" stroke-width="6"/>
<path d="M360 112H307.984C304.436 112 302.017 108.408 303.351 105.12L311.563 84.8798C312.897 81.5923 310.478 78 306.93 78H261" stroke="#E0E0E0" stroke-width="6"/>
</svg>
