<svg width="360" height="136" viewBox="0 0 360 136" fill="none" xmlns="http://www.w3.org/2000/svg">
<path fill-rule="evenodd" clip-rule="evenodd" d="M201.995 61H210C210 44.4315 196.569 31 180 31C163.431 31 150 44.4315 150 61H157.005C157.271 48.8045 167.241 39 179.5 39C191.759 39 201.729 48.8045 201.995 61Z" fill="#D9D9D9"/>
<path d="M141.5 63C141.5 57.201 146.201 52.5 152 52.5H208C213.799 52.5 218.5 57.201 218.5 63V99C218.5 104.799 213.799 109.5 208 109.5H152C146.201 109.5 141.5 104.799 141.5 99V63ZM179.5 89.5C184.471 89.5 188.5 85.4706 188.5 80.5C188.5 75.5294 184.471 71.5 179.5 71.5C174.529 71.5 170.5 75.5294 170.5 80.5C170.5 85.4706 174.529 89.5 179.5 89.5Z" fill="#FF8052" stroke="#EFEFEF" stroke-width="3"/>
<line x1="220" y1="83" x2="360" y2="83" stroke="#E0E0E0" stroke-width="6"/>
<line x1="-2.62268e-07" y1="83" x2="140" y2="83" stroke="#E0E0E0" stroke-width="6"/>
</svg>
