<svg width="70" height="44" viewBox="0 0 70 44" fill="none" xmlns="http://www.w3.org/2000/svg">
<g opacity="0.3" clip-path="url(#clip0_819_1037)">
<path d="M65.5266 5.40853C65.5266 5.45983 65.5266 5.52396 65.5135 5.56244C65.4479 6.06265 65.4479 6.56286 65.4872 7.0759C65.5135 7.20416 65.5397 7.33242 65.6447 7.43503C65.8152 7.62741 66.0775 7.58894 66.1825 7.35807C66.235 7.24264 66.235 7.1272 66.2087 7.01177C66.0775 6.52438 66.0513 6.01135 66.0382 5.51113C66.0382 5.48548 66.0382 5.447 66.0382 5.40853C66.1825 5.3957 66.3137 5.38287 66.4317 5.38287C66.5236 5.37005 66.6023 5.35722 66.6679 5.31874C66.8646 5.21614 66.8646 4.9981 66.6547 4.89549C66.576 4.85701 66.4711 4.84418 66.3793 4.84418C66.0513 4.85701 65.7234 4.85701 65.3954 4.85701C65.2774 4.85701 65.1593 4.86984 65.0412 4.88266C64.9756 4.89549 64.8969 4.89549 64.8445 4.93397C64.7526 4.97244 64.7002 5.03657 64.7002 5.12635C64.7133 5.21614 64.7526 5.26744 64.8445 5.30592C64.8969 5.3444 64.9625 5.35722 65.0281 5.35722C65.1855 5.37005 65.3561 5.3957 65.5266 5.40853ZM69.134 5.99852C69.134 6.01135 69.1471 6.02417 69.1471 6.02417C69.1996 6.37047 69.2521 6.70395 69.2914 7.03742C69.3046 7.15285 69.3177 7.25546 69.3964 7.34524C69.5669 7.56328 69.8293 7.53763 69.9473 7.30677C69.9998 7.19133 70.0129 7.0759 69.9867 6.94764C69.908 6.56286 69.8686 6.17808 69.7899 5.80613C69.7374 5.57526 69.6719 5.35722 69.6063 5.15201C69.5669 5.02375 69.4751 4.93396 69.3177 4.92114C69.1603 4.89549 69.0422 4.97244 68.9766 5.08788C68.8979 5.19048 68.8323 5.29309 68.7798 5.40853C68.688 5.61374 68.6093 5.81896 68.5044 6.01135C68.4912 6.06265 68.4781 6.10113 68.4519 6.1396C68.4388 6.11395 68.4257 6.10113 68.4257 6.10113C68.2551 5.78048 68.0977 5.45983 67.9272 5.15201C67.9009 5.12635 67.8878 5.1007 67.8747 5.07505C67.796 4.95962 67.7042 4.89549 67.5599 4.89549C67.4287 4.90831 67.3237 4.98527 67.2582 5.1007C67.2319 5.15201 67.2319 5.19048 67.2188 5.24179C67.1663 5.65222 67.1007 6.06265 67.0483 6.47308C67.022 6.70395 67.0089 6.93481 67.0089 7.16568C66.9958 7.21698 67.0089 7.28111 67.0351 7.33242C67.0614 7.43502 67.1401 7.49916 67.245 7.51198C67.3762 7.52481 67.468 7.48633 67.5074 7.38372C67.5467 7.30677 67.5599 7.24264 67.573 7.17851C67.6255 6.94764 67.6648 6.7296 67.7042 6.51156C67.7304 6.3833 67.7435 6.28069 67.7829 6.1396C67.8091 6.19091 67.8353 6.22939 67.8616 6.26786C67.9796 6.42178 68.0977 6.57569 68.242 6.70395C68.3863 6.80655 68.5044 6.79373 68.6224 6.67829C68.6487 6.65264 68.6618 6.63982 68.688 6.61416C68.8061 6.4346 68.9504 6.25504 69.0684 6.07547C69.0947 6.04982 69.1078 6.02417 69.134 5.99852Z" fill="black"/>
<path d="M38.9086 5.6605C38.8174 5.90425 38.8 6.07986 38.8421 6.22582C38.8886 6.4243 39.0093 6.48928 39.1731 6.4388C40.7139 6.06627 44.0926 7.12367 45.3435 7.41838C45.6385 7.48026 45.8785 7.10791 45.6772 6.77407C45.3834 6.45077 42.0062 5.0666 40.7176 4.99113C40.2125 4.96322 39.3095 4.83658 38.9086 5.6605Z" fill="black"/>
<path d="M52.1135 1.17983C52.2777 1.2725 52.3695 1.3609 52.4148 1.45967C52.4823 1.58923 52.4467 1.67887 52.3333 1.72461C51.3148 2.21063 49.9595 4.30304 49.4124 5.02469C49.2798 5.1907 48.9739 5.09423 48.9277 4.82123C48.9372 4.51255 50.1386 2.24182 50.8091 1.62335C51.0726 1.38188 51.5079 0.908087 52.1135 1.17983Z" fill="black"/>
<path d="M44.0027 0.149796C44.2 0.00441888 44.405 -0.0465256 44.5097 0.0479512C46.0464 1.3329 46.8613 3.36773 47.3659 5.23057C47.3849 5.27397 47.3861 5.33625 47.3709 5.40122C47.3646 5.45675 47.3231 5.51541 47.2572 5.5608C47.1868 5.61091 47.1262 5.62617 47.0977 5.58299C46.4242 4.68732 42.5775 1.20242 44.0027 0.149796Z" fill="black"/>
<path d="M11.461 22.4276C11.8293 22.1595 12.2297 21.9363 12.6534 21.7631C13.0967 21.6392 13.5692 21.6597 13.9995 21.8217C14.4297 21.9837 14.7944 22.2782 15.0382 22.6608C15.2563 23.0424 15.3416 23.483 15.2814 23.9162C15.2212 24.3493 15.0187 24.7516 14.7043 25.0625C14.4606 25.3145 14.1839 25.534 13.8816 25.7154C12.5342 26.5665 11.1748 27.3709 9.81547 28.222C9.53732 28.435 9.24225 28.6261 8.93308 28.7933C8.46281 29.0226 7.92537 29.084 7.41368 28.9669C6.902 28.8499 6.44826 28.5616 6.13092 28.1521C5.89369 27.8621 5.69348 27.545 5.53471 27.2077C4.24691 24.5612 2.91142 21.9263 1.67131 19.2331C1.09895 18.0673 0.633913 16.7265 0.180798 15.4324C-0.0152406 15.0564 -0.0535225 14.6205 0.0741037 14.2173C0.20173 13.8141 0.485195 13.4755 0.864201 13.2735C1.24321 13.0715 1.68785 13.0221 2.10357 13.1357C2.51929 13.2493 2.87329 13.517 3.09027 13.8818C3.75722 14.7484 4.34761 15.6689 4.85504 16.6333C6.14284 18.965 7.37103 21.2967 8.61113 23.5585C8.68334 23.6835 8.76296 23.8041 8.84961 23.9199C9.783 23.5362 10.6609 23.0345 11.461 22.4276Z" fill="black"/>
<path d="M24.7756 21.6142C21.8304 24.9835 16.8938 24.1324 14.4136 19.7954C12.6488 16.7175 12.3388 11.6343 16.1784 8.42816C16.9983 7.75693 17.9787 7.29968 19.0282 7.09906C20.315 6.91869 21.6272 7.14065 22.7772 7.73323C23.9272 8.32581 24.8562 9.25866 25.4315 10.3985C27.5301 14.1293 27.232 18.886 24.7756 21.6142ZM23.5832 13.7562C23.2703 12.8394 22.6426 12.0567 21.8065 11.541C21.3334 11.2113 20.7585 11.051 20.1787 11.0871C19.5988 11.1232 19.0494 11.3535 18.6228 11.7392C16.9177 13.2199 16.5599 16.7292 17.8 18.8161C17.9581 19.1564 18.1902 19.4588 18.4803 19.7022C18.7704 19.9456 19.1114 20.1241 19.4794 20.2251C19.8474 20.3262 20.2335 20.3474 20.6108 20.2873C20.9881 20.2271 21.3473 20.0871 21.6635 19.877C22.5878 19.1763 23.2659 18.2115 23.6035 17.1167C23.9412 16.0218 23.9216 14.8513 23.5475 13.7679L23.5832 13.7562Z" fill="black"/>
<path d="M36.7959 15.2252C36.4944 15.2886 36.1829 15.2924 35.8798 15.2363C35.5768 15.1802 35.2882 15.0655 35.0312 14.8988C34.8063 14.773 34.6127 14.6001 34.4643 14.3924C34.316 14.1847 34.2166 13.9475 34.1733 13.6977C34.1299 13.448 34.1438 13.192 34.2137 12.9481C34.2837 12.7042 34.4082 12.4785 34.5781 12.2872C34.8741 11.9028 35.2943 11.6276 35.7705 11.5061C37.0138 11.1533 38.2937 10.9382 39.5862 10.8649C39.8702 10.8326 40.1579 10.8561 40.4324 10.934C40.707 11.012 40.9628 11.1427 41.185 11.3187C41.4071 11.4946 41.5911 11.7122 41.7261 11.9586C41.861 12.205 41.9443 12.4753 41.971 12.7536C42.3436 14.1206 42.3844 15.5539 42.0902 16.9391C41.0171 21.416 37.3206 22.9549 33.171 21.5209C32.0062 21.1375 30.9849 20.4231 30.2377 19.469C29.2411 18.32 28.5345 16.9583 28.1748 15.4934C27.8834 14.1889 27.9153 12.8353 28.268 11.5454C28.6206 10.2555 29.2837 9.06676 30.2019 8.07846C31.0733 7.00429 32.2043 6.15892 33.493 5.61847C34.3073 5.17962 35.2602 5.05484 36.164 5.26871C36.369 5.32419 36.5551 5.43229 36.703 5.5818C36.8509 5.73132 36.9552 5.91679 37.0051 6.119C37.055 6.3212 37.0486 6.53277 36.9867 6.73177C36.9247 6.93076 36.8095 7.10993 36.6529 7.25069C36.3551 7.51424 36.0316 7.74854 35.687 7.95021C34.6269 8.61028 33.7044 9.46083 32.9683 10.4568C32.4858 11.1013 32.1535 11.8414 31.9949 12.6249C31.8362 13.4084 31.8551 14.2164 32.0502 14.9921C32.3206 16.0497 32.9207 16.999 33.7672 17.7085C36.3905 20.0403 39.8008 17.7901 39.2046 14.6073C38.3342 14.8172 37.571 15.0387 36.7959 15.2252Z" fill="black"/>
<path d="M52.8215 21.8007C48.9462 24.1325 44.5343 21.8007 43.5684 16.9041C42.8649 13.4065 44.2004 8.50982 48.8747 6.64443C49.8692 6.25608 50.9479 6.11973 52.0107 6.24803C53.2876 6.47658 54.459 7.09121 55.3596 8.00528C56.2602 8.91934 56.8448 10.0867 57.0307 11.3429C57.8177 15.505 56.0291 19.947 52.8215 21.8007ZM54.169 13.9544C54.1678 12.9859 53.8174 12.0487 53.1793 11.3079C52.8382 10.8497 52.3451 10.5214 51.7841 10.3789C51.223 10.2365 50.6289 10.2887 50.1028 10.5268C48.0042 11.4128 46.5256 14.6306 47.0622 16.9974C47.1032 17.3688 47.2266 17.727 47.4239 18.0469C47.6212 18.3668 47.8876 18.6407 48.2045 18.8495C48.5213 19.0582 48.881 19.1968 49.2583 19.2555C49.6357 19.3141 50.0216 19.2915 50.389 19.1892C51.4983 18.8103 52.4588 18.1022 53.1364 17.1637C53.8141 16.2252 54.1751 15.1032 54.169 13.9544Z" fill="black"/>
<path d="M60.9503 22.7801C60.8918 23.2068 60.6624 23.5933 60.3124 23.8546C59.9624 24.1158 59.5206 24.2305 59.0842 24.1733C58.6478 24.1161 58.2525 23.8917 57.9853 23.5495C57.718 23.2074 57.6008 22.7754 57.6593 22.3487C57.7178 21.922 57.9473 21.5355 58.2972 21.2742C58.6472 21.0129 59.089 20.8983 59.5254 20.9555C59.9618 21.0127 60.3571 21.237 60.6244 21.5792C60.8916 21.9214 61.0089 22.3534 60.9503 22.7801ZM59.9129 7.05246C60.1397 6.71381 60.4724 6.45592 60.8614 6.31725C61.2503 6.17858 61.6747 6.16656 62.0712 6.28299C62.4743 6.3816 62.8304 6.61261 63.0801 6.93734C63.3297 7.26208 63.4576 7.66081 63.4425 8.06677C63.3899 8.71794 63.2903 9.36467 63.1444 10.0021C62.7509 12.159 62.3693 14.3158 61.952 16.4494C61.7612 17.3005 61.5108 18.1166 61.2365 18.9793C61.1411 19.249 60.9817 19.4927 60.7715 19.6905C60.6408 19.8393 60.4739 19.9534 60.2861 20.0223C60.0983 20.0913 59.8958 20.1128 59.6973 20.0849C59.4988 20.057 59.3106 19.9806 59.1503 19.8628C58.99 19.7449 58.8627 19.5894 58.7802 19.4107C58.6384 19.0901 58.5614 18.7456 58.5536 18.3964C58.5536 16.9507 58.5536 15.4934 58.649 14.036C58.8111 11.9562 59.1299 9.89087 59.6029 7.85691C59.6586 7.58441 59.7635 7.32382 59.9129 7.08744V7.05246Z" fill="black"/>
<path fill-rule="evenodd" clip-rule="evenodd" d="M6.42312 32.1488C6.28233 32.4561 6.24372 32.7987 6.31252 33.1284C6.35829 33.563 6.45882 33.9905 6.61182 34.4011C6.80284 34.9039 7.01659 35.4011 7.28015 36.0139C7.34076 36.1549 7.4041 36.3021 7.47038 36.457C7.8258 37.2872 8.27176 38.3482 8.86661 39.8837C9.03498 40.3199 9.18449 40.7597 9.33505 41.2025C9.39587 41.3814 9.45691 41.5609 9.51939 41.7408C9.74335 42.3804 10.1287 42.955 10.6395 43.4104C10.8564 43.6607 11.1441 43.8431 11.4667 43.9343C11.7956 44.0273 12.1454 44.0214 12.4708 43.9174C12.7962 43.8133 13.082 43.6159 13.2911 43.3508C13.4961 43.0909 13.618 42.7777 13.6417 42.4505C13.7747 41.8131 13.7293 41.1522 13.5101 40.5377C13.1622 39.5174 12.7659 38.4956 12.3089 37.4962L12.3068 37.4918C11.555 35.9282 10.7908 34.3754 9.99045 32.822L9.98446 32.8111C9.75016 32.4064 9.44567 32.0446 9.08467 31.742C8.85031 31.4719 8.52704 31.2897 8.17004 31.2269C7.80543 31.1628 7.42939 31.2274 7.10905 31.4093C6.80601 31.5785 6.56579 31.8374 6.42312 32.1488Z" fill="black"/>
<path fill-rule="evenodd" clip-rule="evenodd" d="M17.9054 28.2986C16.7266 28.0001 15.4955 27.9566 14.2979 28.1712C13.3703 28.2605 12.458 28.4697 11.8245 28.8841C11.5023 29.095 11.2418 29.3658 11.0969 29.71C10.9512 30.0561 10.9326 30.4519 11.052 30.8929C11.27 31.7007 11.5531 32.4861 11.8352 33.269L11.8809 33.3958L11.882 33.3986C12.7314 35.673 13.5889 37.9397 14.4542 40.1986C14.5551 40.5546 14.6978 40.898 14.8794 41.2219L14.8828 41.2279C15.1227 41.6303 15.4304 41.9902 15.7929 42.2925C15.9742 42.4587 16.1984 42.5737 16.4415 42.6251C16.687 42.6769 16.9423 42.6619 17.1796 42.5815C17.417 42.5012 17.6272 42.3587 17.7874 42.1695C17.945 41.9834 18.0482 41.7592 18.0861 41.5206C18.2425 40.8724 18.1924 40.1929 17.9424 39.5733C17.8644 39.3648 17.8032 39.1517 17.7387 38.9274C17.7172 38.8526 17.6954 38.7765 17.6724 38.699C19.6531 37.942 21.7606 36.9241 22.5017 34.5561C22.7919 33.7378 22.8161 32.8517 22.5709 32.0193C22.3255 31.186 21.822 30.4474 21.1298 29.9052C20.1877 29.1462 19.0872 28.5978 17.9054 28.2986ZM14.6379 31.2031C14.6769 31.1921 14.7162 31.1819 14.7556 31.1724C16.0451 30.9742 17.3644 31.2383 18.4706 31.9159C18.9581 32.2474 19.1578 32.6157 19.1921 32.9701C19.2275 33.335 19.0918 33.7304 18.8192 34.1105C18.3041 34.8285 17.3641 35.4032 16.515 35.5103C15.896 34.1165 15.2674 32.6663 14.6379 31.2031Z" fill="black"/>
<path d="M25.7647 25.7473C27.1685 25.1134 28.9074 25.0039 30.2681 25.4496C30.6108 25.5472 30.9081 25.7583 31.1092 26.0468C31.309 26.3335 31.4012 26.679 31.3704 27.0244C31.3684 27.2486 31.3121 27.4692 31.2062 27.6682C31.0984 27.8708 30.9423 28.045 30.7511 28.1762C30.5599 28.3073 30.3392 28.3916 30.1077 28.4217C29.8761 28.4519 29.6406 28.4271 29.4209 28.3494L29.4042 28.3435L29.3885 28.3354C29.2761 28.2779 29.1567 28.2346 29.0332 28.2064L29.0254 28.2047C28.0682 27.9561 27.1653 28.368 26.8355 28.8741C26.6782 29.1154 26.6587 29.359 26.7897 29.5806C26.93 29.8179 27.2741 30.0842 27.9704 30.274C28.1619 30.3254 28.3582 30.375 28.5573 30.4254C29.1079 30.5648 29.6801 30.7096 30.2334 30.9103L30.2355 30.9111C32.7881 31.8607 33.7386 33.8274 33.4132 35.6772C33.0913 37.5065 31.5288 39.1713 29.1791 39.564C28.3241 39.7493 27.4343 39.7132 26.5978 39.4593C25.7592 39.2046 25.0033 38.7399 24.4052 38.1111L24.3896 38.0947C24.2008 37.8578 24.0738 37.5795 24.0175 37.2842C23.9657 37.0177 23.993 36.7423 24.096 36.4904C24.1984 36.24 24.3716 36.0233 24.5951 35.8654C24.8312 35.6864 25.1158 35.579 25.4137 35.5566C25.7106 35.5343 26.0077 35.5974 26.2684 35.738C26.5288 35.861 26.771 36.0179 26.9884 36.2045L26.9925 36.2079C27.3771 36.5518 27.8424 36.6414 28.2886 36.5584C28.7413 36.4742 29.167 36.2123 29.4408 35.8648C29.7128 35.5195 29.822 35.1093 29.6924 34.7111C29.562 34.31 29.1699 33.8606 28.3084 33.4849C28.0832 33.3914 27.8497 33.316 27.6068 33.2426C27.5413 33.2228 27.4747 33.2031 27.4073 33.1831C27.2277 33.1298 27.0429 33.0749 26.8617 33.0144C26.7369 32.9728 26.6131 32.9334 26.4905 32.8943C26.1554 32.7876 25.8287 32.6836 25.5143 32.5441C24.83 32.3163 24.2388 31.8789 23.8287 31.2966C23.4169 30.712 23.2097 30.0129 23.2379 29.3037C23.2401 27.5754 24.3534 26.3847 25.7647 25.7473Z" fill="black"/>
<path d="M43.5621 25.5632C43.2899 25.4332 42.9889 25.3715 42.6863 25.3836C42.3836 25.3958 42.0888 25.4814 41.8285 25.6329C41.5698 25.7833 41.3532 25.9939 41.198 26.246C41.0557 26.4583 40.9572 26.6957 40.9081 26.945C40.859 27.1941 40.8602 27.4501 40.9115 27.6986C40.9622 28.018 41.0184 28.3286 41.0739 28.6349C41.1658 29.1418 41.2552 29.6373 41.3142 30.1425L41.3164 30.1553C41.4507 30.9476 41.521 31.7489 41.5273 32.5519L41.5279 32.5633C41.5738 33.4305 41.2716 34.2808 40.6861 34.9338L40.6768 34.9454C40.4863 35.1841 40.2316 35.3663 39.9411 35.4716C39.6507 35.5769 39.3361 35.6011 39.0324 35.5415C38.7287 35.4819 38.448 35.3409 38.2216 35.1342C37.9952 34.9275 37.8319 34.6625 37.7504 34.3704C37.5764 33.7547 37.4757 33.1214 37.4501 32.4832L37.7473 27.8569C37.7517 27.7965 37.7567 27.7345 37.7618 27.6719C37.7731 27.5314 37.7847 27.3883 37.7895 27.2548C37.7965 27.0584 37.7905 26.8564 37.7437 26.6652C37.6958 26.4698 37.6047 26.2839 37.4431 26.1256C37.2831 25.9689 37.0671 25.8533 36.7953 25.7746C36.3038 25.6355 35.8882 25.6399 35.5419 25.7836C35.1954 25.9273 34.958 26.1941 34.79 26.5023C34.6233 26.8079 34.5162 27.1697 34.4352 27.5321C34.3751 27.801 34.3268 28.0833 34.2809 28.352C34.265 28.4446 34.2495 28.5355 34.2338 28.6238L34.2334 28.6264C33.9878 30.1 33.9147 31.5962 34.0155 33.086C34.0343 33.8911 34.206 34.6858 34.522 35.4295C34.8785 36.3891 35.5242 37.2205 36.3739 37.814C37.2254 38.4087 38.2415 38.7364 39.2877 38.7537C40.3339 38.771 41.3608 38.4771 42.2324 37.911C43.1026 37.3457 43.777 36.5355 44.1664 35.5876C44.7111 34.3801 44.9669 33.0669 44.9141 31.7481C44.8821 30.7853 44.8285 29.8151 44.7752 28.8498C44.749 28.3763 44.7229 27.9038 44.6995 27.4342C44.6877 26.9633 44.5289 26.5072 44.2443 26.1271C44.0682 25.8868 43.8338 25.693 43.5621 25.5632Z" fill="black"/>
<path d="M53.196 32.8173C53.1684 32.8516 53.1393 32.8871 53.1089 32.924C52.8875 31.6752 52.6823 30.4268 52.4768 29.1765C52.4031 28.7279 52.329 28.2774 52.2545 27.8282L52.2461 27.7781L52.2189 27.7348C52.1676 27.6533 52.1625 27.5734 52.1625 27.403V27.3833L52.1594 27.3638C52.1038 27.0119 51.941 26.6844 51.6923 26.4242C51.4443 26.1647 51.1222 25.9841 50.7679 25.9057C50.4142 25.8204 50.0425 25.8392 49.6996 25.9598C49.3576 26.0801 49.0595 26.2963 48.8425 26.5813C48.6621 26.8 48.5142 27.0426 48.4034 27.3018C48.1519 27.8602 47.8982 28.42 47.6438 28.9813L47.6394 28.991C47.0043 30.3923 46.3649 31.803 45.7441 33.2248L45.7422 33.2294C45.3611 34.1513 45.0465 35.1227 44.733 36.0911C44.6704 36.2844 44.6078 36.4776 44.5447 36.6703C44.4315 36.9759 44.382 37.3005 44.399 37.625C44.3784 37.9155 44.4495 38.2053 44.6029 38.4552C44.7593 38.7102 44.9936 38.9108 45.2727 39.0289C45.5685 39.1557 45.8992 39.1826 46.2125 39.1054C46.5251 39.0283 46.8027 38.8519 47.0016 38.6039C47.2556 38.2984 47.4741 37.9652 47.6523 37.6122C48.1782 36.5604 48.6808 35.4958 49.1811 34.4358C49.3747 34.0258 49.5628 33.6586 49.7768 33.2587C49.7915 33.308 49.8065 33.3561 49.822 33.4043C50.0463 34.3698 50.4249 35.2946 50.9438 36.1448C51.042 36.3249 51.1788 36.4823 51.3448 36.6062C51.5128 36.7316 51.7067 36.8196 51.913 36.8643C52.1193 36.909 52.3331 36.9092 52.5395 36.8649C52.7456 36.8207 52.9401 36.7326 53.1082 36.6078L53.4409 36.3643L56.0232 34.2376L55.8705 35.1891C55.6609 36.497 55.4529 37.794 55.2319 39.0913C55.0873 39.6663 55.0875 40.2669 55.2325 40.8417C55.2953 41.1652 55.4553 41.463 55.6921 41.6972C55.9309 41.9333 56.2367 42.0937 56.5699 42.1577C56.9031 42.2216 57.2483 42.1862 57.5606 42.0559C57.8684 41.9276 58.1302 41.713 58.3132 41.4395C58.739 40.923 59.004 40.2977 59.0768 39.638C59.1864 38.7064 59.3102 37.7621 59.4341 36.8181C59.5768 35.73 59.7195 34.6422 59.84 33.5753L59.8404 33.572C59.9564 32.4041 60.0125 31.2314 60.0086 30.058C60.034 29.6872 59.9396 29.3178 59.7384 29.0021C59.5365 28.6853 59.2375 28.439 58.8841 28.2981C58.5165 28.1347 58.105 28.091 57.7101 28.1736C57.3178 28.2556 56.9627 28.4578 56.6963 28.7507C56.22 29.1814 55.7732 29.6423 55.3587 30.1304L55.3559 30.1337C54.9034 30.685 54.454 31.2471 54.0075 31.8056C53.736 32.1451 53.4653 32.4838 53.196 32.8173Z" fill="black"/>
</g>
<defs>
<clipPath id="clip0_819_1037">
<rect width="70" height="44" fill="white"/>
</clipPath>
</defs>
</svg>
