<svg width="686" height="234" viewBox="0 0 686 234" fill="none" xmlns="http://www.w3.org/2000/svg">
    <!-- nodes -->
    <g filter="url(#filter0_ddd_784_226)">
        <rect x="45" y="65" width="60" height="60" rx="15" transform="rotate(-90 45 65)"
            fill="#F5F5F5" />
        <rect x="46" y="64" width="58" height="58" rx="14" transform="rotate(-90 46 64)"
            stroke="url(#paint0_linear_784_226)" stroke-width="2" />
    </g>

    <g filter="url(#filter1_ddd_784_226)">
        <rect x="8" y="140" width="60" height="60" rx="15" transform="rotate(-90 8 140)"
            fill="#F5F5F5" />
        <rect x="9" y="139" width="58" height="58" rx="14" transform="rotate(-90 9 139)"
            stroke="url(#paint1_linear_784_226)" stroke-width="2" />
    </g>

    <g filter="url(#filter2_ddd_784_226)">
        <rect x="81" y="167" width="60" height="60" rx="15" transform="rotate(-90 81 167)"
            fill="#F5F5F5" />
        <rect x="82" y="166" width="58" height="58" rx="14" transform="rotate(-90 82 166)"
            stroke="url(#paint2_linear_784_226)" stroke-width="2" />
    </g>

    <g filter="url(#filter6_ddd_784_226)">
        <rect x="616" y="222" width="60" height="60" rx="15" transform="rotate(-90 616 222)"
            fill="#F5F5F5" />
        <rect x="617" y="221" width="58" height="58" rx="14" transform="rotate(-90 617 221)"
            stroke="url(#paint12_linear_784_226)" stroke-width="2" />
    </g>

    <g filter="url(#filter7_ddd_784_226)">
        <rect x="556" y="143" width="60" height="60" rx="15" transform="rotate(-90 556 143)"
            fill="#F5F5F5" />
        <rect x="557" y="142" width="58" height="58" rx="14" transform="rotate(-90 557 142)"
            stroke="url(#paint14_linear_784_226)" stroke-width="2" />
    </g>
    <g opacity="0.5">
        <rect x="634.728" y="179.968" width="23.3038" height="23.3038" fill="white"
            fill-opacity="0.01" />
        <rect x="634.728" y="179.968" width="23.3038" height="23.3038"
            stroke="url(#paint13_linear_784_226)" />
        <path fill-rule="evenodd" clip-rule="evenodd"
            d="M646.38 180.886C643.136 180.886 640.506 183.516 640.506 186.759C640.506 189.438 642.299 191.697 644.749 192.404C642.815 192.639 641.155 193.324 639.905 194.556C638.314 196.124 637.509 198.458 637.509 201.504C637.509 201.929 637.853 202.273 638.279 202.273C638.704 202.273 639.048 201.929 639.048 201.504C639.048 198.717 639.782 196.838 640.986 195.652C642.192 194.463 643.993 193.848 646.38 193.848C648.767 193.848 650.567 194.463 651.774 195.652C652.978 196.838 653.711 198.717 653.711 201.504C653.711 201.929 654.056 202.273 654.481 202.273C654.906 202.273 655.251 201.929 655.251 201.504C655.251 198.458 654.445 196.124 652.854 194.556C651.604 193.324 649.945 192.639 648.01 192.404C650.461 191.697 652.253 189.438 652.253 186.759C652.253 183.516 649.624 180.886 646.38 180.886ZM642.046 186.759C642.046 184.366 643.986 182.425 646.38 182.425C648.773 182.425 650.714 184.366 650.714 186.759C650.714 189.153 648.773 191.094 646.38 191.094C643.986 191.094 642.046 189.153 642.046 186.759Z"
            fill="#251E1C" />
    </g>
    <g filter="url(#filter8_ddd_784_226)">
        <rect x="618" y="65" width="60" height="60" rx="15" transform="rotate(-90 618 65)"
            fill="#F5F5F5" />
        <rect x="619" y="64" width="58" height="58" rx="14" transform="rotate(-90 619 64)"
            stroke="url(#paint15_linear_784_226)" stroke-width="2" />
    </g>
    <g opacity="0.5">
        <rect width="24.3038" height="24.3038" transform="translate(574.228 100.468)" fill="white"
            fill-opacity="0.01" />
        <path fill-rule="evenodd" clip-rule="evenodd"
            d="M586.38 101.886C583.136 101.886 580.506 104.516 580.506 107.759C580.506 110.438 582.299 112.697 584.749 113.404C582.815 113.639 581.155 114.324 579.905 115.556C578.314 117.124 577.509 119.458 577.509 122.504C577.509 122.929 577.853 123.273 578.279 123.273C578.704 123.273 579.048 122.929 579.048 122.504C579.048 119.717 579.782 117.838 580.986 116.652C582.192 115.463 583.993 114.848 586.38 114.848C588.767 114.848 590.567 115.463 591.774 116.652C592.978 117.838 593.711 119.717 593.711 122.504C593.711 122.929 594.056 123.273 594.481 123.273C594.906 123.273 595.251 122.929 595.251 122.504C595.251 119.458 594.445 117.124 592.854 115.556C591.604 114.324 589.945 113.639 588.01 113.404C590.461 112.697 592.253 110.438 592.253 107.759C592.253 104.516 589.624 101.886 586.38 101.886ZM582.046 107.759C582.046 105.366 583.986 103.425 586.38 103.425C588.773 103.425 590.714 105.366 590.714 107.759C590.714 110.153 588.773 112.094 586.38 112.094C583.986 112.094 582.046 110.153 582.046 107.759Z"
            fill="#251E1C" />
    </g>
    <g filter="url(#filter3_ddd_784_226)">
        <rect x="8" y="222" width="60" height="60" rx="15" transform="rotate(-90 8 222)"
            fill="#F5F5F5" />
        <rect x="9" y="221" width="58" height="58" rx="14" transform="rotate(-90 9 221)"
            stroke="url(#paint7_linear_784_226)" stroke-width="2" />
    </g>
    <g opacity="0.5">
        <rect width="24.3038" height="24.3038" transform="translate(26.2279 179.468)" fill="white"
            fill-opacity="0.01" />
        <path fill-rule="evenodd" clip-rule="evenodd"
            d="M38.7919 180.796C38.5376 180.646 38.2218 180.646 37.9676 180.796L29.0562 186.062C28.8096 186.208 28.6582 186.473 28.6582 186.759C28.6582 187.046 28.8096 187.311 29.0562 187.457L37.9676 192.723C38.2218 192.873 38.5376 192.873 38.7919 192.723L47.7032 187.457C47.95 187.311 48.1013 187.046 48.1013 186.759C48.1013 186.473 47.95 186.208 47.7032 186.062L38.7919 180.796ZM38.3797 191.084L31.0608 186.759L38.3797 182.435L45.6986 186.759L38.3797 191.084ZM28.7709 191.613C28.9985 191.228 29.4953 191.1 29.8805 191.328L38.3797 196.35L46.879 191.328C47.2641 191.1 47.7609 191.228 47.9886 191.613C48.2162 191.998 48.0885 192.495 47.7032 192.723L38.7919 197.989C38.5376 198.139 38.2218 198.139 37.9676 197.989L29.0562 192.723C28.671 192.495 28.5433 191.998 28.7709 191.613ZM28.7709 196.474C28.9985 196.089 29.4953 195.961 29.8805 196.189L38.3797 201.211L46.879 196.189C47.2641 195.961 47.7609 196.089 47.9886 196.474C48.2162 196.859 48.0885 197.356 47.7032 197.584L38.7919 202.849C38.5376 203 38.2218 203 37.9676 202.849L29.0562 197.584C28.671 197.356 28.5433 196.859 28.7709 196.474Z"
            fill="#251E1C" />
    </g>
    <g opacity="0.5">
        <rect width="24.3038" height="24.3038" transform="translate(99.2279 124.468)" fill="white"
            fill-opacity="0.01" />
        <path fill-rule="evenodd" clip-rule="evenodd"
            d="M111.792 125.796C111.538 125.646 111.222 125.646 110.968 125.796L102.056 131.062C101.81 131.208 101.658 131.473 101.658 131.759C101.658 132.046 101.81 132.311 102.056 132.457L110.968 137.723C111.222 137.873 111.538 137.873 111.792 137.723L120.703 132.457C120.95 132.311 121.101 132.046 121.101 131.759C121.101 131.473 120.95 131.208 120.703 131.062L111.792 125.796ZM111.38 136.084L104.061 131.759L111.38 127.435L118.699 131.759L111.38 136.084ZM101.771 136.613C101.999 136.228 102.495 136.1 102.88 136.328L111.38 141.35L119.879 136.328C120.264 136.1 120.761 136.228 120.989 136.613C121.216 136.998 121.089 137.495 120.703 137.723L111.792 142.989C111.538 143.139 111.222 143.139 110.968 142.989L102.056 137.723C101.671 137.495 101.543 136.998 101.771 136.613ZM101.771 141.474C101.999 141.089 102.495 140.961 102.88 141.189L111.38 146.211L119.879 141.189C120.264 140.961 120.761 141.089 120.989 141.474C121.216 141.859 121.089 142.356 120.703 142.584L111.792 147.849C111.538 148 111.222 148 110.968 147.849L102.056 142.584C101.671 142.356 101.543 141.859 101.771 141.474Z"
            fill="#251E1C" />
    </g>
    <g opacity="0.5">
        <rect width="24.3038" height="24.3038" transform="translate(26.2279 97.4684)" fill="white"
            fill-opacity="0.01" />
        <path fill-rule="evenodd" clip-rule="evenodd"
            d="M38.7919 98.7962C38.5376 98.646 38.2218 98.646 37.9676 98.7962L29.0562 104.062C28.8096 104.208 28.6582 104.473 28.6582 104.76C28.6582 105.046 28.8096 105.311 29.0562 105.457L37.9676 110.723C38.2218 110.873 38.5376 110.873 38.7919 110.723L47.7032 105.457C47.95 105.311 48.1013 105.046 48.1013 104.76C48.1013 104.473 47.95 104.208 47.7032 104.062L38.7919 98.7962ZM38.3797 109.084L31.0608 104.76L38.3797 100.435L45.6986 104.76L38.3797 109.084ZM28.7709 109.613C28.9985 109.228 29.4953 109.1 29.8805 109.328L38.3797 114.35L46.879 109.328C47.2641 109.1 47.7609 109.228 47.9886 109.613C48.2162 109.998 48.0885 110.495 47.7032 110.723L38.7919 115.989C38.5376 116.139 38.2218 116.139 37.9676 115.989L29.0562 110.723C28.671 110.495 28.5433 109.998 28.7709 109.613ZM28.7709 114.474C28.9985 114.089 29.4953 113.961 29.8805 114.189L38.3797 119.211L46.879 114.189C47.2641 113.961 47.7609 114.089 47.9886 114.474C48.2162 114.859 48.0885 115.356 47.7032 115.584L38.7919 120.849C38.5376 121 38.2218 121 37.9676 120.849L29.0562 115.584C28.671 115.356 28.5433 114.859 28.7709 114.474Z"
            fill="#251E1C" />
    </g>
    <g opacity="0.5">
        <rect width="24.3038" height="24.3038" transform="translate(636.228 22.4683)" fill="white"
            fill-opacity="0.01" />
        <path fill-rule="evenodd" clip-rule="evenodd"
            d="M648.38 23.8861C645.136 23.8861 642.506 26.5157 642.506 29.7595C642.506 32.4376 644.299 34.697 646.749 35.4037C644.815 35.6394 643.155 36.3237 641.905 37.5556C640.314 39.1236 639.509 41.4577 639.509 44.5036C639.509 44.9288 639.853 45.2732 640.279 45.2732C640.704 45.2732 641.048 44.9288 641.048 44.5036C641.048 41.7168 641.782 39.8384 642.986 38.6519C644.192 37.4632 645.993 36.8481 648.38 36.8481C650.767 36.8481 652.567 37.4632 653.774 38.6519C654.978 39.8384 655.711 41.7168 655.711 44.5036C655.711 44.9288 656.056 45.2732 656.481 45.2732C656.906 45.2734 657.251 44.9288 657.251 44.5038C657.251 41.4577 656.445 39.1236 654.854 37.5556C653.604 36.3237 651.945 35.6394 650.01 35.4037C652.461 34.697 654.253 32.4376 654.253 29.7595C654.253 26.5157 651.624 23.8861 648.38 23.8861ZM644.046 29.7595C644.046 27.3658 645.986 25.4253 648.38 25.4253C650.773 25.4253 652.714 27.3658 652.714 29.7595C652.714 32.1532 650.773 34.0937 648.38 34.0937C645.986 34.0937 644.046 32.1532 644.046 29.7595Z"
            fill="#251E1C" />
    </g>
    <g opacity="0.5">
        <rect width="24.3038" height="24.3038" transform="translate(63.2279 22.4684)" fill="white"
            fill-opacity="0.01" />
        <path fill-rule="evenodd" clip-rule="evenodd"
            d="M75.7919 23.7962C75.5376 23.646 75.2218 23.646 74.9676 23.7962L66.0562 29.0621C65.8096 29.2078 65.6582 29.473 65.6582 29.7595C65.6582 30.046 65.8096 30.3112 66.0562 30.457L74.9676 35.7228C75.2218 35.873 75.5376 35.873 75.7919 35.7228L84.7032 30.457C84.95 30.3112 85.1013 30.046 85.1013 29.7595C85.1013 29.473 84.95 29.2078 84.7032 29.0621L75.7919 23.7962ZM75.3797 34.0843L68.0608 29.7595L75.3797 25.4347L82.6986 29.7595L75.3797 34.0843ZM65.7709 34.6132C65.9985 34.228 66.4953 34.1003 66.8805 34.3279L75.3797 39.3501L83.879 34.3279C84.2641 34.1003 84.7609 34.228 84.9886 34.6132C85.2162 34.9984 85.0885 35.4952 84.7032 35.7228L75.7919 40.9887C75.5376 41.1389 75.2218 41.1389 74.9676 40.9887L66.0562 35.7228C65.671 35.4952 65.5433 34.9984 65.7709 34.6132ZM65.7709 39.4739C65.9985 39.0888 66.4953 38.9611 66.8805 39.1886L75.3797 44.2109L83.879 39.1886C84.2641 38.9611 84.7609 39.0888 84.9886 39.4739C85.2162 39.8592 85.0885 40.356 84.7032 40.5836L75.7919 45.8494C75.5376 45.9996 75.2218 45.9996 74.9676 45.8494L66.0562 40.5836C65.671 40.356 65.5433 39.8592 65.7709 39.4739Z"
            fill="#251E1C" />
    </g>

    <!-- lines -->
    <path
        id="path1"
        d="M68 192.329L158.658 192.329C166.943 192.329 173.658 185.613 173.658 177.329V129C173.658 120.716
    180.374 114 188.658 114H204.595"
    />
    <mask id="line1Mask">
        <use href="#path1" stroke="white" stroke-width="2" />
    </mask>
    <g mask="url(#line1Mask)">
        <use href="#path1" stroke="#E0E0E0" stroke-width="2" />

        <circle r="50" fill="#FF8052" filter="url(#blur_filter)">
            <animateMotion dur="2s" repeatCount="indefinite">
                <mpath href="#path1" />
            </animateMotion>
            <animate attributeName="r" values="10;50;10" dur="2s" repeatCount="indefinite" />
        </circle>
    </g>

    <path
        id="path2"
        d="M141.076 136.709H162.304C168.575 136.709 173.658 131.625 173.658 125.354V125.354C173.658 119.084
    178.742 114 185.013 114H204.595"
        stroke="#E0E0E0" stroke-width="2" />
    <mask id="line2Mask">
        <use href="#path2" stroke="white" stroke-width="2" />
    </mask>
    <g mask="url(#line2Mask)">
        <use href="#path2" stroke="#E0E0E0" stroke-width="2" />

        <circle r="50" fill="#FF8052" filter="url(#blur_filter)">
            <animateMotion dur="3s" repeatCount="indefinite">
                <mpath href="#path2" />
            </animateMotion>
            <animate attributeName="r" values="10;50;10" dur="3s" repeatCount="indefinite" />
        </circle>
    </g>

    <path
        id="path3"
        d="M68.6709 110.709H72.6203C79.5273 110.709 85.1266 105.11 85.1266 98.2026V98.2026C85.1266 91.2955
    90.7259 85.6962 97.6329 85.6962L159.506 85.6962C167.322 85.6962 173.658 92.0322 173.658
    99.8481V99.8481C173.658 107.664 179.994 114 187.81 114H204.595"
        stroke="#E0E0E0" stroke-width="2" />
    <mask id="line3Mask">
        <use href="#path3" stroke="white" stroke-width="2" />
    </mask>
    <g mask="url(#line3Mask)">
        <use href="#path3" stroke="#E0E0E0" stroke-width="2" />

        <circle r="50" fill="#FF8052" filter="url(#blur_filter)">
            <animateMotion dur="4s" repeatCount="indefinite">
                <mpath href="#path3" />
            </animateMotion>
            <animate attributeName="r" values="10;50;10" dur="4s" repeatCount="indefinite" />
        </circle>
    </g>

    <path
        id="path4"
        d="M104.873 34.0253H158.658C166.943 34.0253 173.658 40.7411 173.658 49.0253V85.6962V99C173.658 107.284 180.374 114 188.658 114H317.5"
        stroke="#E0E0E0" stroke-width="2" />
    <mask id="line4Mask">
        <use href="#path4" stroke="white" stroke-width="2" />
    </mask>
    <g mask="url(#line4Mask)">
        <use href="#path4" stroke="#E0E0E0" stroke-width="2" />

        <circle r="50" fill="#FF8052" filter="url(#blur_filter)">
            <animateMotion dur="2s" repeatCount="indefinite">
                <mpath href="#path4" />
            </animateMotion>
            <animate attributeName="r" values="10;50;10" dur="2s" repeatCount="indefinite" />
        </circle>
    </g>

    <path
        id="path5"
        d="M617.5 34.5H524C515.716 34.5 509 41.2157 509 49.5V98C509 106.284 502.284 113 494 113H483.5"
        stroke="#E0E0E0" stroke-width="2" />
    <mask id="line5Mask">
        <use href="#path5" stroke="white" stroke-width="2" />
    </mask>
    <g mask="url(#line5Mask)">
        <use href="#path5" stroke="#E0E0E0" stroke-width="2" />

        <circle r="50" fill="#FF8052" filter="url(#blur_filter)">
            <animateMotion dur="3s" repeatCount="indefinite">
                <mpath href="#path5" />
            </animateMotion>
            <animate attributeName="r" values="10;50;10" dur="3s" repeatCount="indefinite" />
        </circle>
    </g>

    <path
        id="path6"
        d="M618 192H524.5C516.216 192 509.5 185.284 509.5 177V128C509.5 119.716 502.784 113 494.5 113H484"
        stroke="#E0E0E0" stroke-width="2" />
    <mask id="line6Mask">
        <use href="#path6" stroke="white" stroke-width="2" />
    </mask>
    <g mask="url(#line6Mask)">
        <use href="#path6" stroke="#E0E0E0" stroke-width="2" />

        <circle r="50" fill="#FF8052" filter="url(#blur_filter)">
            <animateMotion dur="3s" repeatCount="indefinite">
                <mpath href="#path6" />
            </animateMotion>
            <animate attributeName="r" values="10;50;10" dur="3s" repeatCount="indefinite" />
        </circle>
    </g>

    <path id="path7" d="M557.5 113H406" stroke="#E0E0E0" stroke-width="2" />
    <mask id="line7Mask">
        <use href="#path7" stroke="white" stroke-width="2" />
    </mask>
    <g mask="url(#line7Mask)">
        <use href="#path7" stroke="#E0E0E0" stroke-width="2" />

        <circle r="50" fill="#FF8052" filter="url(#blur_filter)">
            <animateMotion dur="1.5s" repeatCount="indefinite">
                <mpath href="#path7" />
            </animateMotion>
            <animate attributeName="r" values="10;50;10" dur="1.5s" repeatCount="indefinite" />
        </circle>
    </g>


    <!-- central node with logo -->
    <g filter="url(#filter4_ddd_784_226)">
        <rect x="279" y="48.0009" width="126" height="126" rx="15" fill="#F5F5F5" />
        <rect x="280" y="49.0009" width="124" height="124" rx="14"
            stroke="url(#paint8_linear_784_226)" stroke-width="2" />
    </g>
    <g filter="url(#filter5_dd_784_226)">
        <path
            d="M345.271 74.3289L375.729 104.33V104.333C377.529 106.106 379 109.605 379 112.111V130.427C379 130.427 374.751 130.427 370.148 130.427C365.545 130.427 363.421 133.908 363.421 137.04C363.421 140.172 363.421 143.998 363.421 143.998H309.625C307.081 143.998 305 141.948 305 139.442V112.108C305 109.602 306.474 106.101 308.271 104.33L338.732 74.3289C340.529 72.5582 343.474 72.5582 345.271 74.3289Z"
            fill="#251E1C" />
        <path
            d="M379 132.594V139.824C379 142.131 377.098 144.001 374.751 144.001H365.634V137.388C365.634 135.082 368.156 132.594 370.502 132.594H379Z"
            fill="#FF8052" />
        <path
            d="M356.231 116.311C356.231 124.153 349.859 130.511 342 130.511C334.141 130.511 327.769 124.153 327.769 116.311C327.769 108.468 334.141 102.111 342 102.111C349.859 102.111 356.231 108.468 356.231 116.311Z"
            fill="#F5F5F5" />
    </g>

    <defs>
        <filter id="blur_filter" x="0" y="0">
            <feGaussianBlur in="SourceGraphic" stdDeviation="15" />
        </filter>

        <filter id="filter0_ddd_784_226" x="37" y="0" width="76" height="77"
            filterUnits="userSpaceOnUse" color-interpolation-filters="sRGB">
            <feFlood flood-opacity="0" result="BackgroundImageFix" />
            <feColorMatrix in="SourceAlpha" type="matrix"
                values="0 0 0 0 0 0 0 0 0 0 0 0 0 0 0 0 0 0 127 0" result="hardAlpha" />
            <feMorphology radius="2" operator="erode" in="SourceAlpha"
                result="effect1_dropShadow_784_226" />
            <feOffset dy="2" />
            <feGaussianBlur stdDeviation="1.5" />
            <feComposite in2="hardAlpha" operator="out" />
            <feColorMatrix type="matrix" values="0 0 0 0 0 0 0 0 0 0 0 0 0 0 0.2 0 0 0 0.0588235 0" />
            <feBlend mode="normal" in2="BackgroundImageFix" result="effect1_dropShadow_784_226" />
            <feColorMatrix in="SourceAlpha" type="matrix"
                values="0 0 0 0 0 0 0 0 0 0 0 0 0 0 0 0 0 0 127 0" result="hardAlpha" />
            <feMorphology radius="4" operator="erode" in="SourceAlpha"
                result="effect2_dropShadow_784_226" />
            <feOffset dy="3" />
            <feGaussianBlur stdDeviation="6" />
            <feComposite in2="hardAlpha" operator="out" />
            <feColorMatrix type="matrix" values="0 0 0 0 0 0 0 0 0 0 0 0 0 0 0 0 0 0 0.1 0" />
            <feBlend mode="normal" in2="effect1_dropShadow_784_226"
                result="effect2_dropShadow_784_226" />
            <feColorMatrix in="SourceAlpha" type="matrix"
                values="0 0 0 0 0 0 0 0 0 0 0 0 0 0 0 0 0 0 127 0" result="hardAlpha" />
            <feMorphology radius="8" operator="erode" in="SourceAlpha"
                result="effect3_dropShadow_784_226" />
            <feOffset dy="4" />
            <feGaussianBlur stdDeviation="8" />
            <feComposite in2="hardAlpha" operator="out" />
            <feColorMatrix type="matrix" values="0 0 0 0 0 0 0 0 0 0 0 0 0 0 0 0 0 0 0.1 0" />
            <feBlend mode="normal" in2="effect2_dropShadow_784_226"
                result="effect3_dropShadow_784_226" />
            <feBlend mode="normal" in="SourceGraphic" in2="effect3_dropShadow_784_226"
                result="shape" />
        </filter>
        <filter id="filter1_ddd_784_226" x="0" y="75" width="76" height="77"
            filterUnits="userSpaceOnUse" color-interpolation-filters="sRGB">
            <feFlood flood-opacity="0" result="BackgroundImageFix" />
            <feColorMatrix in="SourceAlpha" type="matrix"
                values="0 0 0 0 0 0 0 0 0 0 0 0 0 0 0 0 0 0 127 0" result="hardAlpha" />
            <feMorphology radius="2" operator="erode" in="SourceAlpha"
                result="effect1_dropShadow_784_226" />
            <feOffset dy="2" />
            <feGaussianBlur stdDeviation="1.5" />
            <feComposite in2="hardAlpha" operator="out" />
            <feColorMatrix type="matrix" values="0 0 0 0 0 0 0 0 0 0 0 0 0 0 0.2 0 0 0 0.0588235 0" />
            <feBlend mode="normal" in2="BackgroundImageFix" result="effect1_dropShadow_784_226" />
            <feColorMatrix in="SourceAlpha" type="matrix"
                values="0 0 0 0 0 0 0 0 0 0 0 0 0 0 0 0 0 0 127 0" result="hardAlpha" />
            <feMorphology radius="4" operator="erode" in="SourceAlpha"
                result="effect2_dropShadow_784_226" />
            <feOffset dy="3" />
            <feGaussianBlur stdDeviation="6" />
            <feComposite in2="hardAlpha" operator="out" />
            <feColorMatrix type="matrix" values="0 0 0 0 0 0 0 0 0 0 0 0 0 0 0 0 0 0 0.1 0" />
            <feBlend mode="normal" in2="effect1_dropShadow_784_226"
                result="effect2_dropShadow_784_226" />
            <feColorMatrix in="SourceAlpha" type="matrix"
                values="0 0 0 0 0 0 0 0 0 0 0 0 0 0 0 0 0 0 127 0" result="hardAlpha" />
            <feMorphology radius="8" operator="erode" in="SourceAlpha"
                result="effect3_dropShadow_784_226" />
            <feOffset dy="4" />
            <feGaussianBlur stdDeviation="8" />
            <feComposite in2="hardAlpha" operator="out" />
            <feColorMatrix type="matrix" values="0 0 0 0 0 0 0 0 0 0 0 0 0 0 0 0 0 0 0.1 0" />
            <feBlend mode="normal" in2="effect2_dropShadow_784_226"
                result="effect3_dropShadow_784_226" />
            <feBlend mode="normal" in="SourceGraphic" in2="effect3_dropShadow_784_226"
                result="shape" />
        </filter>
        <filter id="filter2_ddd_784_226" x="73" y="102" width="76" height="77"
            filterUnits="userSpaceOnUse" color-interpolation-filters="sRGB">
            <feFlood flood-opacity="0" result="BackgroundImageFix" />
            <feColorMatrix in="SourceAlpha" type="matrix"
                values="0 0 0 0 0 0 0 0 0 0 0 0 0 0 0 0 0 0 127 0" result="hardAlpha" />
            <feMorphology radius="2" operator="erode" in="SourceAlpha"
                result="effect1_dropShadow_784_226" />
            <feOffset dy="2" />
            <feGaussianBlur stdDeviation="1.5" />
            <feComposite in2="hardAlpha" operator="out" />
            <feColorMatrix type="matrix" values="0 0 0 0 0 0 0 0 0 0 0 0 0 0 0.2 0 0 0 0.0588235 0" />
            <feBlend mode="normal" in2="BackgroundImageFix" result="effect1_dropShadow_784_226" />
            <feColorMatrix in="SourceAlpha" type="matrix"
                values="0 0 0 0 0 0 0 0 0 0 0 0 0 0 0 0 0 0 127 0" result="hardAlpha" />
            <feMorphology radius="4" operator="erode" in="SourceAlpha"
                result="effect2_dropShadow_784_226" />
            <feOffset dy="3" />
            <feGaussianBlur stdDeviation="6" />
            <feComposite in2="hardAlpha" operator="out" />
            <feColorMatrix type="matrix" values="0 0 0 0 0 0 0 0 0 0 0 0 0 0 0 0 0 0 0.1 0" />
            <feBlend mode="normal" in2="effect1_dropShadow_784_226"
                result="effect2_dropShadow_784_226" />
            <feColorMatrix in="SourceAlpha" type="matrix"
                values="0 0 0 0 0 0 0 0 0 0 0 0 0 0 0 0 0 0 127 0" result="hardAlpha" />
            <feMorphology radius="8" operator="erode" in="SourceAlpha"
                result="effect3_dropShadow_784_226" />
            <feOffset dy="4" />
            <feGaussianBlur stdDeviation="8" />
            <feComposite in2="hardAlpha" operator="out" />
            <feColorMatrix type="matrix" values="0 0 0 0 0 0 0 0 0 0 0 0 0 0 0 0 0 0 0.1 0" />
            <feBlend mode="normal" in2="effect2_dropShadow_784_226"
                result="effect3_dropShadow_784_226" />
            <feBlend mode="normal" in="SourceGraphic" in2="effect3_dropShadow_784_226"
                result="shape" />
        </filter>
        <filter id="filter3_ddd_784_226" x="0" y="157" width="76" height="77"
            filterUnits="userSpaceOnUse" color-interpolation-filters="sRGB">
            <feFlood flood-opacity="0" result="BackgroundImageFix" />
            <feColorMatrix in="SourceAlpha" type="matrix"
                values="0 0 0 0 0 0 0 0 0 0 0 0 0 0 0 0 0 0 127 0" result="hardAlpha" />
            <feMorphology radius="2" operator="erode" in="SourceAlpha"
                result="effect1_dropShadow_784_226" />
            <feOffset dy="2" />
            <feGaussianBlur stdDeviation="1.5" />
            <feComposite in2="hardAlpha" operator="out" />
            <feColorMatrix type="matrix" values="0 0 0 0 0 0 0 0 0 0 0 0 0 0 0.2 0 0 0 0.0588235 0" />
            <feBlend mode="normal" in2="BackgroundImageFix" result="effect1_dropShadow_784_226" />
            <feColorMatrix in="SourceAlpha" type="matrix"
                values="0 0 0 0 0 0 0 0 0 0 0 0 0 0 0 0 0 0 127 0" result="hardAlpha" />
            <feMorphology radius="4" operator="erode" in="SourceAlpha"
                result="effect2_dropShadow_784_226" />
            <feOffset dy="3" />
            <feGaussianBlur stdDeviation="6" />
            <feComposite in2="hardAlpha" operator="out" />
            <feColorMatrix type="matrix" values="0 0 0 0 0 0 0 0 0 0 0 0 0 0 0 0 0 0 0.1 0" />
            <feBlend mode="normal" in2="effect1_dropShadow_784_226"
                result="effect2_dropShadow_784_226" />
            <feColorMatrix in="SourceAlpha" type="matrix"
                values="0 0 0 0 0 0 0 0 0 0 0 0 0 0 0 0 0 0 127 0" result="hardAlpha" />
            <feMorphology radius="8" operator="erode" in="SourceAlpha"
                result="effect3_dropShadow_784_226" />
            <feOffset dy="4" />
            <feGaussianBlur stdDeviation="8" />
            <feComposite in2="hardAlpha" operator="out" />
            <feColorMatrix type="matrix" values="0 0 0 0 0 0 0 0 0 0 0 0 0 0 0 0 0 0 0.1 0" />
            <feBlend mode="normal" in2="effect2_dropShadow_784_226"
                result="effect3_dropShadow_784_226" />
            <feBlend mode="normal" in="SourceGraphic" in2="effect3_dropShadow_784_226"
                result="shape" />
        </filter>
        <filter id="filter4_ddd_784_226" x="271" y="43.0009" width="142" height="143"
            filterUnits="userSpaceOnUse" color-interpolation-filters="sRGB">
            <feFlood flood-opacity="0" result="BackgroundImageFix" />
            <feColorMatrix in="SourceAlpha" type="matrix"
                values="0 0 0 0 0 0 0 0 0 0 0 0 0 0 0 0 0 0 127 0" result="hardAlpha" />
            <feMorphology radius="2" operator="erode" in="SourceAlpha"
                result="effect1_dropShadow_784_226" />
            <feOffset dy="2" />
            <feGaussianBlur stdDeviation="1.5" />
            <feComposite in2="hardAlpha" operator="out" />
            <feColorMatrix type="matrix" values="0 0 0 0 0 0 0 0 0 0 0 0 0 0 0.2 0 0 0 0.0588235 0" />
            <feBlend mode="normal" in2="BackgroundImageFix" result="effect1_dropShadow_784_226" />
            <feColorMatrix in="SourceAlpha" type="matrix"
                values="0 0 0 0 0 0 0 0 0 0 0 0 0 0 0 0 0 0 127 0" result="hardAlpha" />
            <feMorphology radius="4" operator="erode" in="SourceAlpha"
                result="effect2_dropShadow_784_226" />
            <feOffset dy="3" />
            <feGaussianBlur stdDeviation="6" />
            <feComposite in2="hardAlpha" operator="out" />
            <feColorMatrix type="matrix" values="0 0 0 0 0 0 0 0 0 0 0 0 0 0 0 0 0 0 0.1 0" />
            <feBlend mode="normal" in2="effect1_dropShadow_784_226"
                result="effect2_dropShadow_784_226" />
            <feColorMatrix in="SourceAlpha" type="matrix"
                values="0 0 0 0 0 0 0 0 0 0 0 0 0 0 0 0 0 0 127 0" result="hardAlpha" />
            <feMorphology radius="8" operator="erode" in="SourceAlpha"
                result="effect3_dropShadow_784_226" />
            <feOffset dy="4" />
            <feGaussianBlur stdDeviation="8" />
            <feComposite in2="hardAlpha" operator="out" />
            <feColorMatrix type="matrix" values="0 0 0 0 0 0 0 0 0 0 0 0 0 0 0 0 0 0 0.1 0" />
            <feBlend mode="normal" in2="effect2_dropShadow_784_226"
                result="effect3_dropShadow_784_226" />
            <feBlend mode="normal" in="SourceGraphic" in2="effect3_dropShadow_784_226"
                result="shape" />
        </filter>
        <filter id="filter5_dd_784_226" x="245" y="25.0009" width="194" height="191"
            filterUnits="userSpaceOnUse" color-interpolation-filters="sRGB">
            <feFlood flood-opacity="0" result="BackgroundImageFix" />
            <feColorMatrix in="SourceAlpha" type="matrix"
                values="0 0 0 0 0 0 0 0 0 0 0 0 0 0 0 0 0 0 127 0" result="hardAlpha" />
            <feOffset dy="12" />
            <feGaussianBlur stdDeviation="30" />
            <feComposite in2="hardAlpha" operator="out" />
            <feColorMatrix type="matrix" values="0 0 0 0 0 0 0 0 0 0 0 0 0 0 0 0 0 0 0.15 0" />
            <feBlend mode="normal" in2="BackgroundImageFix" result="effect1_dropShadow_784_226" />
            <feColorMatrix in="SourceAlpha" type="matrix"
                values="0 0 0 0 0 0 0 0 0 0 0 0 0 0 0 0 0 0 127 0" result="hardAlpha" />
            <feMorphology radius="16" operator="erode" in="SourceAlpha"
                result="effect2_dropShadow_784_226" />
            <feOffset dy="12" />
            <feGaussianBlur stdDeviation="16" />
            <feComposite in2="hardAlpha" operator="out" />
            <feColorMatrix type="matrix"
                values="0 0 0 0 1 0 0 0 0 0.501961 0 0 0 0 0.321569 0 0 0 0.121569 0" />
            <feBlend mode="normal" in2="effect1_dropShadow_784_226"
                result="effect2_dropShadow_784_226" />
            <feBlend mode="normal" in="SourceGraphic" in2="effect2_dropShadow_784_226"
                result="shape" />
        </filter>
        <filter id="filter6_ddd_784_226" x="608" y="157" width="76" height="77"
            filterUnits="userSpaceOnUse" color-interpolation-filters="sRGB">
            <feFlood flood-opacity="0" result="BackgroundImageFix" />
            <feColorMatrix in="SourceAlpha" type="matrix"
                values="0 0 0 0 0 0 0 0 0 0 0 0 0 0 0 0 0 0 127 0" result="hardAlpha" />
            <feMorphology radius="2" operator="erode" in="SourceAlpha"
                result="effect1_dropShadow_784_226" />
            <feOffset dy="2" />
            <feGaussianBlur stdDeviation="1.5" />
            <feComposite in2="hardAlpha" operator="out" />
            <feColorMatrix type="matrix" values="0 0 0 0 0 0 0 0 0 0 0 0 0 0 0.2 0 0 0 0.0588235 0" />
            <feBlend mode="normal" in2="BackgroundImageFix" result="effect1_dropShadow_784_226" />
            <feColorMatrix in="SourceAlpha" type="matrix"
                values="0 0 0 0 0 0 0 0 0 0 0 0 0 0 0 0 0 0 127 0" result="hardAlpha" />
            <feMorphology radius="4" operator="erode" in="SourceAlpha"
                result="effect2_dropShadow_784_226" />
            <feOffset dy="3" />
            <feGaussianBlur stdDeviation="6" />
            <feComposite in2="hardAlpha" operator="out" />
            <feColorMatrix type="matrix" values="0 0 0 0 0 0 0 0 0 0 0 0 0 0 0 0 0 0 0.1 0" />
            <feBlend mode="normal" in2="effect1_dropShadow_784_226"
                result="effect2_dropShadow_784_226" />
            <feColorMatrix in="SourceAlpha" type="matrix"
                values="0 0 0 0 0 0 0 0 0 0 0 0 0 0 0 0 0 0 127 0" result="hardAlpha" />
            <feMorphology radius="8" operator="erode" in="SourceAlpha"
                result="effect3_dropShadow_784_226" />
            <feOffset dy="4" />
            <feGaussianBlur stdDeviation="8" />
            <feComposite in2="hardAlpha" operator="out" />
            <feColorMatrix type="matrix" values="0 0 0 0 0 0 0 0 0 0 0 0 0 0 0 0 0 0 0.1 0" />
            <feBlend mode="normal" in2="effect2_dropShadow_784_226"
                result="effect3_dropShadow_784_226" />
            <feBlend mode="normal" in="SourceGraphic" in2="effect3_dropShadow_784_226"
                result="shape" />
        </filter>
        <filter id="filter7_ddd_784_226" x="548" y="78" width="76" height="77"
            filterUnits="userSpaceOnUse" color-interpolation-filters="sRGB">
            <feFlood flood-opacity="0" result="BackgroundImageFix" />
            <feColorMatrix in="SourceAlpha" type="matrix"
                values="0 0 0 0 0 0 0 0 0 0 0 0 0 0 0 0 0 0 127 0" result="hardAlpha" />
            <feMorphology radius="2" operator="erode" in="SourceAlpha"
                result="effect1_dropShadow_784_226" />
            <feOffset dy="2" />
            <feGaussianBlur stdDeviation="1.5" />
            <feComposite in2="hardAlpha" operator="out" />
            <feColorMatrix type="matrix" values="0 0 0 0 0 0 0 0 0 0 0 0 0 0 0.2 0 0 0 0.0588235 0" />
            <feBlend mode="normal" in2="BackgroundImageFix" result="effect1_dropShadow_784_226" />
            <feColorMatrix in="SourceAlpha" type="matrix"
                values="0 0 0 0 0 0 0 0 0 0 0 0 0 0 0 0 0 0 127 0" result="hardAlpha" />
            <feMorphology radius="4" operator="erode" in="SourceAlpha"
                result="effect2_dropShadow_784_226" />
            <feOffset dy="3" />
            <feGaussianBlur stdDeviation="6" />
            <feComposite in2="hardAlpha" operator="out" />
            <feColorMatrix type="matrix" values="0 0 0 0 0 0 0 0 0 0 0 0 0 0 0 0 0 0 0.1 0" />
            <feBlend mode="normal" in2="effect1_dropShadow_784_226"
                result="effect2_dropShadow_784_226" />
            <feColorMatrix in="SourceAlpha" type="matrix"
                values="0 0 0 0 0 0 0 0 0 0 0 0 0 0 0 0 0 0 127 0" result="hardAlpha" />
            <feMorphology radius="8" operator="erode" in="SourceAlpha"
                result="effect3_dropShadow_784_226" />
            <feOffset dy="4" />
            <feGaussianBlur stdDeviation="8" />
            <feComposite in2="hardAlpha" operator="out" />
            <feColorMatrix type="matrix" values="0 0 0 0 0 0 0 0 0 0 0 0 0 0 0 0 0 0 0.1 0" />
            <feBlend mode="normal" in2="effect2_dropShadow_784_226"
                result="effect3_dropShadow_784_226" />
            <feBlend mode="normal" in="SourceGraphic" in2="effect3_dropShadow_784_226"
                result="shape" />
        </filter>
        <filter id="filter8_ddd_784_226" x="610" y="-7.62939e-06" width="76" height="77"
            filterUnits="userSpaceOnUse" color-interpolation-filters="sRGB">
            <feFlood flood-opacity="0" result="BackgroundImageFix" />
            <feColorMatrix in="SourceAlpha" type="matrix"
                values="0 0 0 0 0 0 0 0 0 0 0 0 0 0 0 0 0 0 127 0" result="hardAlpha" />
            <feMorphology radius="2" operator="erode" in="SourceAlpha"
                result="effect1_dropShadow_784_226" />
            <feOffset dy="2" />
            <feGaussianBlur stdDeviation="1.5" />
            <feComposite in2="hardAlpha" operator="out" />
            <feColorMatrix type="matrix" values="0 0 0 0 0 0 0 0 0 0 0 0 0 0 0.2 0 0 0 0.0588235 0" />
            <feBlend mode="normal" in2="BackgroundImageFix" result="effect1_dropShadow_784_226" />
            <feColorMatrix in="SourceAlpha" type="matrix"
                values="0 0 0 0 0 0 0 0 0 0 0 0 0 0 0 0 0 0 127 0" result="hardAlpha" />
            <feMorphology radius="4" operator="erode" in="SourceAlpha"
                result="effect2_dropShadow_784_226" />
            <feOffset dy="3" />
            <feGaussianBlur stdDeviation="6" />
            <feComposite in2="hardAlpha" operator="out" />
            <feColorMatrix type="matrix" values="0 0 0 0 0 0 0 0 0 0 0 0 0 0 0 0 0 0 0.1 0" />
            <feBlend mode="normal" in2="effect1_dropShadow_784_226"
                result="effect2_dropShadow_784_226" />
            <feColorMatrix in="SourceAlpha" type="matrix"
                values="0 0 0 0 0 0 0 0 0 0 0 0 0 0 0 0 0 0 127 0" result="hardAlpha" />
            <feMorphology radius="8" operator="erode" in="SourceAlpha"
                result="effect3_dropShadow_784_226" />
            <feOffset dy="4" />
            <feGaussianBlur stdDeviation="8" />
            <feComposite in2="hardAlpha" operator="out" />
            <feColorMatrix type="matrix" values="0 0 0 0 0 0 0 0 0 0 0 0 0 0 0 0 0 0 0.1 0" />
            <feBlend mode="normal" in2="effect2_dropShadow_784_226"
                result="effect3_dropShadow_784_226" />
            <feBlend mode="normal" in="SourceGraphic" in2="effect3_dropShadow_784_226"
                result="shape" />
        </filter>
        <linearGradient id="paint0_linear_784_226" x1="45" y1="67.459" x2="76.7213" y2="125"
            gradientUnits="userSpaceOnUse">
            <stop stop-color="#F1F1F1" />
            <stop offset="1" stop-color="#DADADA" />
        </linearGradient>
        <linearGradient id="paint1_linear_784_226" x1="8" y1="142.459" x2="39.7213" y2="200"
            gradientUnits="userSpaceOnUse">
            <stop stop-color="#F1F1F1" />
            <stop offset="1" stop-color="#DADADA" />
        </linearGradient>
        <linearGradient id="paint2_linear_784_226" x1="81" y1="169.459" x2="112.721" y2="227"
            gradientUnits="userSpaceOnUse">
            <stop stop-color="#F1F1F1" />
            <stop offset="1" stop-color="#DADADA" />
        </linearGradient>
        <linearGradient id="paint7_linear_784_226" x1="8" y1="224.459" x2="39.7213" y2="282"
            gradientUnits="userSpaceOnUse">
            <stop stop-color="#F1F1F1" />
            <stop offset="1" stop-color="#DADADA" />
        </linearGradient>
        <linearGradient id="paint8_linear_784_226" x1="279" y1="53.1648" x2="345.615" y2="174.001"
            gradientUnits="userSpaceOnUse">
            <stop stop-color="#F1F1F1" />
            <stop offset="1" stop-color="#DADADA" />
        </linearGradient>
        <linearGradient id="paint12_linear_784_226" x1="616" y1="224.459" x2="647.721" y2="282"
            gradientUnits="userSpaceOnUse">
            <stop stop-color="#F1F1F1" />
            <stop offset="1" stop-color="#DADADA" />
        </linearGradient>
        <linearGradient id="paint13_linear_784_226" x1="634.228" y1="180.464" x2="647.077"
            y2="203.772" gradientUnits="userSpaceOnUse">
            <stop stop-color="#F1F1F1" />
            <stop offset="1" stop-color="#DADADA" />
        </linearGradient>
        <linearGradient id="paint14_linear_784_226" x1="556" y1="145.459" x2="587.721" y2="203"
            gradientUnits="userSpaceOnUse">
            <stop stop-color="#F1F1F1" />
            <stop offset="1" stop-color="#DADADA" />
        </linearGradient>
        <linearGradient id="paint15_linear_784_226" x1="618" y1="67.459" x2="649.721" y2="125"
            gradientUnits="userSpaceOnUse">
            <stop stop-color="#F1F1F1" />
            <stop offset="1" stop-color="#DADADA" />
        </linearGradient>
    </defs>
</svg>