<svg width="1216" height="335" viewBox="0 0 1216 335" fill="none" xmlns="http://www.w3.org/2000/svg">
    <!-- icon nodes -->
    <g filter="url(#filter0_ddd_683_6757)">
        <rect x="63" y="85.9985" width="79" height="79" rx="15" transform="rotate(-90 63 85.9985)"
            fill="#F5F5F5" />
        <rect x="64" y="84.9985" width="77" height="77" rx="14" transform="rotate(-90 64 84.9985)"
            stroke="url(#paint0_linear_683_6757)" stroke-width="2" />
    </g>
    <g opacity="0.5">
        <rect width="32" height="32" transform="translate(87 29.9985)" fill="white"
            fill-opacity="0.01" />
        <path fill-rule="evenodd" clip-rule="evenodd"
            d="M103.543 31.7469C103.208 31.5491 102.792 31.5491 102.457 31.7469L90.7239 38.6802C90.3992 38.8721 90.1999 39.2213 90.1999 39.5985C90.1999 39.9758 90.3992 40.325 90.7239 40.5168L102.457 47.4502C102.792 47.648 103.208 47.648 103.543 47.4502L115.276 40.5168C115.601 40.325 115.8 39.9758 115.8 39.5985C115.8 39.2213 115.601 38.8721 115.276 38.6802L103.543 31.7469ZM103 45.2929L93.3633 39.5985L103 33.9042L112.636 39.5985L103 45.2929ZM90.3483 45.9892C90.648 45.4821 91.3021 45.3139 91.8092 45.6136L103 52.2262L114.191 45.6136C114.698 45.3139 115.352 45.4821 115.652 45.9892C115.951 46.4964 115.783 47.1505 115.276 47.4502L103.543 54.3836C103.208 54.5814 102.792 54.5814 102.457 54.3836L90.7239 47.4502C90.2168 47.1505 90.0486 46.4964 90.3483 45.9892ZM90.3482 52.3891C90.648 51.8821 91.302 51.7139 91.8092 52.0135L103 58.6262L114.191 52.0135C114.698 51.7139 115.352 51.8821 115.652 52.3891C115.951 52.8965 115.783 53.5505 115.276 53.8503L103.543 60.7836C103.208 60.9814 102.792 60.9814 102.457 60.7836L90.7239 53.8503C90.2168 53.5505 90.0486 52.8965 90.3482 52.3891Z"
            fill="#251E1C" />
    </g>
    <g filter="url(#filter1_ddd_683_6757)">
        <rect x="8" y="199.999" width="79" height="79" rx="15" transform="rotate(-90 8 199.999)"
            fill="#F5F5F5" />
        <rect x="9" y="198.999" width="77" height="77" rx="14" transform="rotate(-90 9 198.999)"
            stroke="url(#paint1_linear_683_6757)" stroke-width="2" />
    </g>
    <g opacity="0.5">
        <rect width="32" height="32" transform="translate(32 143.999)" fill="white"
            fill-opacity="0.01" />
        <path fill-rule="evenodd" clip-rule="evenodd"
            d="M48.5426 145.747C48.2078 145.549 47.792 145.549 47.4573 145.747L35.7239 152.68C35.3992 152.872 35.1999 153.221 35.1999 153.599C35.1999 153.976 35.3992 154.325 35.7239 154.517L47.4573 161.45C47.792 161.648 48.2078 161.648 48.5426 161.45L60.2758 154.517C60.6007 154.325 60.8 153.976 60.8 153.599C60.8 153.221 60.6007 152.872 60.2758 152.68L48.5426 145.747ZM47.9999 159.293L38.3633 153.599L47.9999 147.904L57.6365 153.599L47.9999 159.293ZM35.3483 159.989C35.648 159.482 36.3021 159.314 36.8092 159.614L47.9999 166.226L59.1906 159.614C59.6977 159.314 60.3518 159.482 60.6515 159.989C60.9513 160.496 60.7831 161.15 60.2758 161.45L48.5426 168.384C48.2078 168.581 47.792 168.581 47.4573 168.384L35.7239 161.45C35.2168 161.15 35.0486 160.496 35.3483 159.989ZM35.3482 166.389C35.648 165.882 36.302 165.714 36.8092 166.013L47.9999 172.626L59.1906 166.013C59.6977 165.714 60.3518 165.882 60.6515 166.389C60.9513 166.896 60.7831 167.551 60.2758 167.85L48.5426 174.784C48.2078 174.981 47.792 174.981 47.4573 174.784L35.7239 167.85C35.2168 167.551 35.0486 166.896 35.3482 166.389Z"
            fill="#251E1C" />
    </g>
    <g filter="url(#filter2_ddd_683_6757)">
        <rect x="119" y="238.999" width="79" height="79" rx="15" transform="rotate(-90 119 238.999)"
            fill="#F5F5F5" />
        <rect x="120" y="237.999" width="77" height="77" rx="14" transform="rotate(-90 120 237.999)"
            stroke="url(#paint2_linear_683_6757)" stroke-width="2" />
    </g>
    <g opacity="0.5">
        <rect width="32" height="32" transform="translate(143 182.999)" fill="white"
            fill-opacity="0.01" />
        <path fill-rule="evenodd" clip-rule="evenodd"
            d="M159.543 184.747C159.208 184.549 158.792 184.549 158.457 184.747L146.724 191.68C146.399 191.872 146.2 192.221 146.2 192.599C146.2 192.976 146.399 193.325 146.724 193.517L158.457 200.45C158.792 200.648 159.208 200.648 159.543 200.45L171.276 193.517C171.601 193.325 171.8 192.976 171.8 192.599C171.8 192.221 171.601 191.872 171.276 191.68L159.543 184.747ZM159 198.293L149.363 192.599L159 186.904L168.636 192.599L159 198.293ZM146.348 198.989C146.648 198.482 147.302 198.314 147.809 198.614L159 205.226L170.191 198.614C170.698 198.314 171.352 198.482 171.652 198.989C171.951 199.496 171.783 200.15 171.276 200.45L159.543 207.384C159.208 207.581 158.792 207.581 158.457 207.384L146.724 200.45C146.217 200.15 146.049 199.496 146.348 198.989ZM146.348 205.389C146.648 204.882 147.302 204.714 147.809 205.013L159 211.626L170.191 205.013C170.698 204.714 171.352 204.882 171.652 205.389C171.951 205.896 171.783 206.551 171.276 206.85L159.543 213.784C159.208 213.981 158.792 213.981 158.457 213.784L146.724 206.85C146.217 206.551 146.049 205.896 146.348 205.389Z"
            fill="#251E1C" />
    </g>
    <g filter="url(#filter3_ddd_683_6757)">
        <rect x="40" y="322.999" width="79" height="79" rx="15" transform="rotate(-90 40 322.999)"
            fill="#F5F5F5" />
        <rect x="41" y="321.999" width="77" height="77" rx="14" transform="rotate(-90 41 321.999)"
            stroke="url(#paint7_linear_683_6757)" stroke-width="2" />
    </g>
    <g opacity="0.5">
        <rect width="32" height="32" transform="translate(64 266.999)" fill="white"
            fill-opacity="0.01" />
        <path fill-rule="evenodd" clip-rule="evenodd"
            d="M80.5426 268.747C80.2078 268.549 79.792 268.549 79.4573 268.747L67.7239 275.68C67.3992 275.872 67.1999 276.221 67.1999 276.599C67.1999 276.976 67.3992 277.325 67.7239 277.517L79.4573 284.45C79.792 284.648 80.2078 284.648 80.5426 284.45L92.2758 277.517C92.6007 277.325 92.8 276.976 92.8 276.599C92.8 276.221 92.6007 275.872 92.2758 275.68L80.5426 268.747ZM79.9999 282.293L70.3633 276.599L79.9999 270.904L89.6365 276.599L79.9999 282.293ZM67.3483 282.989C67.648 282.482 68.3021 282.314 68.8092 282.614L79.9999 289.226L91.1906 282.614C91.6977 282.314 92.3518 282.482 92.6515 282.989C92.9513 283.496 92.7831 284.15 92.2758 284.45L80.5426 291.384C80.2078 291.581 79.792 291.581 79.4573 291.384L67.7239 284.45C67.2168 284.15 67.0486 283.496 67.3483 282.989ZM67.3482 289.389C67.648 288.882 68.302 288.714 68.8092 289.013L79.9999 295.626L91.1906 289.013C91.6977 288.714 92.3518 288.882 92.6515 289.389C92.9513 289.896 92.7831 290.551 92.2758 290.85L80.5426 297.784C80.2078 297.981 79.792 297.981 79.4573 297.784L67.7239 290.85C67.2168 290.551 67.0486 289.896 67.3482 289.389Z"
            fill="#251E1C" />
    </g>
    <g filter="url(#filter4_ddd_683_6757)">
        <rect x="1073" y="322.999" width="79" height="79" rx="15"
            transform="rotate(-90 1073 322.999)" fill="#F5F5F5" />
        <rect x="1074" y="321.999" width="77" height="77" rx="14"
            transform="rotate(-90 1074 321.999)" stroke="url(#paint11_linear_683_6757)"
            stroke-width="2" />
    </g>
    <g opacity="0.5">
        <rect x="1097.5" y="267.499" width="31" height="31" fill="white" fill-opacity="0.01" />
        <rect x="1097.5" y="267.499" width="31" height="31" stroke="url(#paint12_linear_683_6757)" />
        <path fill-rule="evenodd" clip-rule="evenodd"
            d="M1113 268.865C1108.73 268.865 1105.27 272.328 1105.27 276.599C1105.27 280.125 1107.63 283.1 1110.85 284.03C1108.31 284.34 1106.12 285.241 1104.48 286.863C1102.38 288.928 1101.32 292.001 1101.32 296.012C1101.32 296.571 1101.77 297.025 1102.33 297.025C1102.89 297.025 1103.35 296.571 1103.35 296.012C1103.35 292.342 1104.31 289.869 1105.9 288.307C1107.49 286.742 1109.86 285.932 1113 285.932C1116.14 285.932 1118.51 286.742 1120.1 288.307C1121.69 289.869 1122.65 292.342 1122.65 296.012C1122.65 296.571 1123.11 297.025 1123.67 297.025C1124.23 297.025 1124.68 296.571 1124.68 296.012C1124.68 292.001 1123.62 288.928 1121.52 286.863C1119.88 285.241 1117.69 284.34 1115.15 284.03C1118.37 283.1 1120.73 280.125 1120.73 276.599C1120.73 272.328 1117.27 268.865 1113 268.865ZM1107.29 276.599C1107.29 273.447 1109.85 270.892 1113 270.892C1116.15 270.892 1118.71 273.447 1118.71 276.599C1118.71 279.75 1116.15 282.305 1113 282.305C1109.85 282.305 1107.29 279.75 1107.29 276.599Z"
            fill="#251E1C" />
    </g>
    <g filter="url(#filter5_ddd_683_6757)">
        <rect x="1129" y="204.999" width="79" height="79" rx="15"
            transform="rotate(-90 1129 204.999)" fill="#F5F5F5" />
        <rect x="1130" y="203.999" width="77" height="77" rx="14"
            transform="rotate(-90 1130 203.999)" stroke="url(#paint13_linear_683_6757)"
            stroke-width="2" />
    </g>
    <g opacity="0.5">
        <rect width="32" height="32" transform="translate(1153 148.999)" fill="white"
            fill-opacity="0.01" />
        <path fill-rule="evenodd" clip-rule="evenodd"
            d="M1169 150.865C1164.73 150.865 1161.27 154.328 1161.27 158.599C1161.27 162.125 1163.63 165.1 1166.85 166.03C1164.31 166.34 1162.12 167.241 1160.48 168.863C1158.38 170.928 1157.32 174.001 1157.32 178.012C1157.32 178.571 1157.77 179.025 1158.33 179.025C1158.89 179.025 1159.35 178.571 1159.35 178.012C1159.35 174.342 1160.31 171.869 1161.9 170.307C1163.49 168.742 1165.86 167.932 1169 167.932C1172.14 167.932 1174.51 168.742 1176.1 170.307C1177.69 171.869 1178.65 174.342 1178.65 178.012C1178.65 178.571 1179.11 179.025 1179.67 179.025C1180.23 179.025 1180.68 178.571 1180.68 178.012C1180.68 174.001 1179.62 170.928 1177.52 168.863C1175.88 167.241 1173.69 166.34 1171.15 166.03C1174.37 165.1 1176.73 162.125 1176.73 158.599C1176.73 154.328 1173.27 150.865 1169 150.865ZM1163.29 158.599C1163.29 155.447 1165.85 152.892 1169 152.892C1172.15 152.892 1174.71 155.447 1174.71 158.599C1174.71 161.75 1172.15 164.305 1169 164.305C1165.85 164.305 1163.29 161.75 1163.29 158.599Z"
            fill="#251E1C" />
    </g>
    <g filter="url(#filter6_ddd_683_6757)">
        <rect x="1073" y="83.9986" width="79" height="79" rx="15"
            transform="rotate(-90 1073 83.9986)" fill="#F5F5F5" />
        <rect x="1074" y="82.9986" width="77" height="77" rx="14"
            transform="rotate(-90 1074 82.9986)" stroke="url(#paint14_linear_683_6757)"
            stroke-width="2" />
    </g>
    <g opacity="0.5">
        <rect width="32" height="32" transform="translate(1097 27.9986)" fill="white"
            fill-opacity="0.01" />
        <path fill-rule="evenodd" clip-rule="evenodd"
            d="M1113 29.8652C1108.73 29.8652 1105.27 33.3276 1105.27 37.5986C1105.27 41.1247 1107.63 44.0997 1110.85 45.0301C1108.31 45.3405 1106.12 46.2414 1104.48 47.8635C1102.38 49.928 1101.32 53.0012 1101.32 57.0117C1101.32 57.5715 1101.77 58.025 1102.33 58.025C1102.89 58.025 1103.35 57.5715 1103.35 57.0117C1103.35 53.3424 1104.31 50.8692 1105.9 49.307C1107.49 47.7418 1109.86 46.9319 1113 46.9319C1116.14 46.9319 1118.51 47.7418 1120.1 49.307C1121.69 50.8692 1122.65 53.3424 1122.65 57.0117C1122.65 57.5715 1123.11 58.025 1123.67 58.025C1124.23 58.0252 1124.68 57.5715 1124.68 57.0119C1124.68 53.0012 1123.62 49.928 1121.52 47.8635C1119.88 46.2415 1117.69 45.3405 1115.15 45.0301C1118.37 44.0997 1120.73 41.1247 1120.73 37.5986C1120.73 33.3276 1117.27 29.8652 1113 29.8652ZM1107.29 37.5986C1107.29 34.4469 1109.85 31.8919 1113 31.8919C1116.15 31.8919 1118.71 34.4469 1118.71 37.5986C1118.71 40.7503 1116.15 43.3053 1113 43.3053C1109.85 43.3053 1107.29 40.7503 1107.29 37.5986Z"
            fill="#251E1C" />
    </g>

    <!-- lines -->
    <path
        id="path1"
        d="M117.5 283.999H231C239.284 283.999 246 277.283 246 268.999V179.999C246 171.714 252.716 164.999
    261 164.999H293"
    />
    <mask id="line1Mask">
        <use href="#path1" stroke="white" stroke-width="2" />
    </mask>
    <g mask="url(#line1Mask)">
        <use href="#path1" stroke="#E0E0E0" stroke-width="2" />

        <circle r="50" fill="#FF8052" filter="url(#blur_filter)">
            <animateMotion dur="3s" repeatCount="indefinite">
                <mpath href="#path1" />
            </animateMotion>
            <animate attributeName="r" values="10;50;10" dur="3s" repeatCount="indefinite" />
        </circle>
    </g>

    <path
        id="path2"
        d="M196.5 199.499H231C239.284 199.499 246 192.783 246 184.499V179.999C246 171.714 252.716 164.999
        261 164.999H293"
        stroke="#E0E0E0" stroke-width="2" />
    <mask id="line2Mask">
        <use href="#path2" stroke="white" stroke-width="2" />
    </mask>
    <g mask="url(#line2Mask)">
        <use href="#path2" stroke="#E0E0E0" stroke-width="2" />

        <circle r="50" fill="#FF8052" filter="url(#blur_filter)">
            <animateMotion dur="3s" repeatCount="indefinite">
                <mpath href="#path2" />
            </animateMotion>
            <animate attributeName="r" values="10;50;10" dur="3s" repeatCount="indefinite" />
        </circle>
    </g>

    <path
        id="path3"
        d="M86.5 159.999H96.5C104.784 159.999 111.5 153.283 111.5 144.999V136.999C111.5 128.714 118.216
        121.999 126.5 121.999L231 121.999C239.284 121.999 246 128.714 246 136.999V149.999C246 158.283
        252.716 164.999 261 164.999H293"
        stroke="#E0E0E0" stroke-width="2" />
    <mask id="line3Mask">
        <use href="#path3" stroke="white" stroke-width="2" />
    </mask>
    <g mask="url(#line3Mask)">
        <use href="#path3" stroke="#E0E0E0" stroke-width="2" />

        <circle r="50" fill="#FF8052" filter="url(#blur_filter)">
            <animateMotion dur="4s" repeatCount="indefinite">
                <mpath href="#path3" />
            </animateMotion>
            <animate attributeName="r" values="10;50;10" dur="4s" repeatCount="indefinite" />
        </circle>
    </g>

    <path
        id="path4"
        d="M141.5 43.4985L231 43.4985C239.284 43.4985 246 50.2143 246 58.4985V121.999V149.999C246 158.283
        252.716 164.999 261 164.999L293 164.999H407.508C416.531 164.999 423.512 157.091 422.392
        148.138L419.108 121.859C417.988 112.906 424.969 104.999 433.992 104.999L552 104.999"
        stroke="#E0E0E0" stroke-width="2" />
    <mask id="line4Mask">
        <use href="#path4" stroke="white" stroke-width="2" />
    </mask>
    <g mask="url(#line4Mask)">
        <use href="#path4" stroke="#E0E0E0" stroke-width="2" />

        <circle r="50" fill="#FF8052" filter="url(#blur_filter)">
            <animateMotion dur="5s" repeatCount="indefinite">
                <mpath href="#path4" />
            </animateMotion>
            <animate attributeName="r" values="10;50;10" dur="5s" repeatCount="indefinite" />
        </circle>
    </g>

    <path
        id="path5"
        d="M1074.5 286.499H984C975.716 286.499 969 279.783 969 271.499V179.999C969 171.714 962.284 164.999 954
        164.999H915"
        stroke="#E0E0E0" stroke-width="2" />
    <mask id="line5Mask">
        <use href="#path5" stroke="white" stroke-width="2" />
    </mask>
    <g mask="url(#line5Mask)">
        <use href="#path5" stroke="#E0E0E0" stroke-width="2" />

        <circle r="50" fill="#FF8052" filter="url(#blur_filter)">
            <animateMotion dur="4s" repeatCount="indefinite">
                <mpath href="#path5" />
            </animateMotion>
            <animate attributeName="r" values="10;50;10" dur="4s" repeatCount="indefinite" />
        </circle>
    </g>

    <path
        id="path6"
        d="M1074.5 44.9997H984C975.716 44.9997 969 51.7154 969 59.9997V149.999C969 158.283 962.284 164.999 954
        164.999H927"
        stroke="#E0E0E0" stroke-width="2" />
    <mask id="line6Mask">
        <use href="#path6" stroke="white" stroke-width="2" />
    </mask>
    <g mask="url(#line6Mask)">
        <use href="#path6" stroke="#E0E0E0" stroke-width="2" />

        <circle r="50" fill="#FF8052" filter="url(#blur_filter)">
            <animateMotion dur="3s" repeatCount="indefinite">
                <mpath href="#path6" />
            </animateMotion>
            <animate attributeName="r" values="10;50;10" dur="3s" repeatCount="indefinite" />
        </circle>
    </g>

    <path
        id="path7"
        d="M1130.5 164.999H997H817.492C808.469 164.999 801.488 157.091 802.608 148.138L805.892
        121.86C807.012 112.907 800.031 105 791.008 105H644"
        stroke="#E0E0E0" stroke-width="2" />
    <mask id="line7Mask">
        <use href="#path7" stroke="white" stroke-width="2" />
    </mask>
    <g mask="url(#line7Mask)">
        <use href="#path7" stroke="#E0E0E0" stroke-width="2" />

        <circle r="50" fill="#FF8052" filter="url(#blur_filter)">
            <animateMotion dur="5s" repeatCount="indefinite">
                <mpath href="#path7" />
            </animateMotion>
            <animate attributeName="r" values="10;50;10" dur="5s" repeatCount="indefinite" />
        </circle>
    </g>

    <!-- central node with logo -->
    <g filter="url(#filter7_ddd_683_6757)">
        <rect x="545" y="40.9997" width="126" height="126" rx="15" fill="#F5F5F5" />
        <rect x="546" y="41.9997" width="124" height="124" rx="14"
            stroke="url(#paint15_linear_683_6757)" stroke-width="2" />
    </g>
    <g filter="url(#filter8_dd_683_6757)">
        <path
            d="M611.271 67.3276L641.729 97.3287V97.3315C643.529 99.1052 645 102.604 645 105.11V123.426C645 123.426 640.751 123.426 636.148 123.426C631.545 123.426 629.421 126.907 629.421 130.039C629.421 133.171 629.421 136.997 629.421 136.997H575.625C573.081 136.997 571 134.947 571 132.441V105.107C571 102.601 572.474 99.0994 574.271 97.3287L604.732 67.3276C606.529 65.557 609.474 65.557 611.271 67.3276Z"
            fill="#251E1C" />
        <path
            d="M645 125.593V132.823C645 135.13 643.098 137 640.751 137H631.634V130.387C631.634 128.08 634.156 125.593 636.502 125.593H645Z"
            fill="#FF8052" />
        <path
            d="M622.231 109.31C622.231 117.152 615.859 123.51 608 123.51C600.141 123.51 593.769 117.152 593.769 109.31C593.769 101.467 600.141 95.1097 608 95.1097C615.859 95.1097 622.231 101.467 622.231 109.31Z"
            fill="#F5F5F5" />
    </g>

    <!-- filters,figma moment -->

    <defs>
        <filter id="blur_filter" x="0" y="0">
            <feGaussianBlur in="SourceGraphic" stdDeviation="15" />
        </filter>

        <filter id="filter0_ddd_683_6757" x="55" y="1.99854" width="95" height="96"
            filterUnits="userSpaceOnUse" color-interpolation-filters="sRGB">
            <feFlood flood-opacity="0" result="BackgroundImageFix" />
            <feColorMatrix in="SourceAlpha" type="matrix"
                values="0 0 0 0 0 0 0 0 0 0 0 0 0 0 0 0 0 0 127 0" result="hardAlpha" />
            <feMorphology radius="2" operator="erode" in="SourceAlpha"
                result="effect1_dropShadow_683_6757" />
            <feOffset dy="2" />
            <feGaussianBlur stdDeviation="1.5" />
            <feComposite in2="hardAlpha" operator="out" />
            <feColorMatrix type="matrix" values="0 0 0 0 0 0 0 0 0 0 0 0 0 0 0.2 0 0 0 0.0588235 0" />
            <feBlend mode="normal" in2="BackgroundImageFix" result="effect1_dropShadow_683_6757" />
            <feColorMatrix in="SourceAlpha" type="matrix"
                values="0 0 0 0 0 0 0 0 0 0 0 0 0 0 0 0 0 0 127 0" result="hardAlpha" />
            <feMorphology radius="4" operator="erode" in="SourceAlpha"
                result="effect2_dropShadow_683_6757" />
            <feOffset dy="3" />
            <feGaussianBlur stdDeviation="6" />
            <feComposite in2="hardAlpha" operator="out" />
            <feColorMatrix type="matrix" values="0 0 0 0 0 0 0 0 0 0 0 0 0 0 0 0 0 0 0.1 0" />
            <feBlend mode="normal" in2="effect1_dropShadow_683_6757"
                result="effect2_dropShadow_683_6757" />
            <feColorMatrix in="SourceAlpha" type="matrix"
                values="0 0 0 0 0 0 0 0 0 0 0 0 0 0 0 0 0 0 127 0" result="hardAlpha" />
            <feMorphology radius="8" operator="erode" in="SourceAlpha"
                result="effect3_dropShadow_683_6757" />
            <feOffset dy="4" />
            <feGaussianBlur stdDeviation="8" />
            <feComposite in2="hardAlpha" operator="out" />
            <feColorMatrix type="matrix" values="0 0 0 0 0 0 0 0 0 0 0 0 0 0 0 0 0 0 0.1 0" />
            <feBlend mode="normal" in2="effect2_dropShadow_683_6757"
                result="effect3_dropShadow_683_6757" />
            <feBlend mode="normal" in="SourceGraphic" in2="effect3_dropShadow_683_6757"
                result="shape" />
        </filter>
        <filter id="filter1_ddd_683_6757" x="0" y="115.999" width="95" height="96"
            filterUnits="userSpaceOnUse" color-interpolation-filters="sRGB">
            <feFlood flood-opacity="0" result="BackgroundImageFix" />
            <feColorMatrix in="SourceAlpha" type="matrix"
                values="0 0 0 0 0 0 0 0 0 0 0 0 0 0 0 0 0 0 127 0" result="hardAlpha" />
            <feMorphology radius="2" operator="erode" in="SourceAlpha"
                result="effect1_dropShadow_683_6757" />
            <feOffset dy="2" />
            <feGaussianBlur stdDeviation="1.5" />
            <feComposite in2="hardAlpha" operator="out" />
            <feColorMatrix type="matrix" values="0 0 0 0 0 0 0 0 0 0 0 0 0 0 0.2 0 0 0 0.0588235 0" />
            <feBlend mode="normal" in2="BackgroundImageFix" result="effect1_dropShadow_683_6757" />
            <feColorMatrix in="SourceAlpha" type="matrix"
                values="0 0 0 0 0 0 0 0 0 0 0 0 0 0 0 0 0 0 127 0" result="hardAlpha" />
            <feMorphology radius="4" operator="erode" in="SourceAlpha"
                result="effect2_dropShadow_683_6757" />
            <feOffset dy="3" />
            <feGaussianBlur stdDeviation="6" />
            <feComposite in2="hardAlpha" operator="out" />
            <feColorMatrix type="matrix" values="0 0 0 0 0 0 0 0 0 0 0 0 0 0 0 0 0 0 0.1 0" />
            <feBlend mode="normal" in2="effect1_dropShadow_683_6757"
                result="effect2_dropShadow_683_6757" />
            <feColorMatrix in="SourceAlpha" type="matrix"
                values="0 0 0 0 0 0 0 0 0 0 0 0 0 0 0 0 0 0 127 0" result="hardAlpha" />
            <feMorphology radius="8" operator="erode" in="SourceAlpha"
                result="effect3_dropShadow_683_6757" />
            <feOffset dy="4" />
            <feGaussianBlur stdDeviation="8" />
            <feComposite in2="hardAlpha" operator="out" />
            <feColorMatrix type="matrix" values="0 0 0 0 0 0 0 0 0 0 0 0 0 0 0 0 0 0 0.1 0" />
            <feBlend mode="normal" in2="effect2_dropShadow_683_6757"
                result="effect3_dropShadow_683_6757" />
            <feBlend mode="normal" in="SourceGraphic" in2="effect3_dropShadow_683_6757"
                result="shape" />
        </filter>
        <filter id="filter2_ddd_683_6757" x="111" y="154.999" width="95" height="96"
            filterUnits="userSpaceOnUse" color-interpolation-filters="sRGB">
            <feFlood flood-opacity="0" result="BackgroundImageFix" />
            <feColorMatrix in="SourceAlpha" type="matrix"
                values="0 0 0 0 0 0 0 0 0 0 0 0 0 0 0 0 0 0 127 0" result="hardAlpha" />
            <feMorphology radius="2" operator="erode" in="SourceAlpha"
                result="effect1_dropShadow_683_6757" />
            <feOffset dy="2" />
            <feGaussianBlur stdDeviation="1.5" />
            <feComposite in2="hardAlpha" operator="out" />
            <feColorMatrix type="matrix" values="0 0 0 0 0 0 0 0 0 0 0 0 0 0 0.2 0 0 0 0.0588235 0" />
            <feBlend mode="normal" in2="BackgroundImageFix" result="effect1_dropShadow_683_6757" />
            <feColorMatrix in="SourceAlpha" type="matrix"
                values="0 0 0 0 0 0 0 0 0 0 0 0 0 0 0 0 0 0 127 0" result="hardAlpha" />
            <feMorphology radius="4" operator="erode" in="SourceAlpha"
                result="effect2_dropShadow_683_6757" />
            <feOffset dy="3" />
            <feGaussianBlur stdDeviation="6" />
            <feComposite in2="hardAlpha" operator="out" />
            <feColorMatrix type="matrix" values="0 0 0 0 0 0 0 0 0 0 0 0 0 0 0 0 0 0 0.1 0" />
            <feBlend mode="normal" in2="effect1_dropShadow_683_6757"
                result="effect2_dropShadow_683_6757" />
            <feColorMatrix in="SourceAlpha" type="matrix"
                values="0 0 0 0 0 0 0 0 0 0 0 0 0 0 0 0 0 0 127 0" result="hardAlpha" />
            <feMorphology radius="8" operator="erode" in="SourceAlpha"
                result="effect3_dropShadow_683_6757" />
            <feOffset dy="4" />
            <feGaussianBlur stdDeviation="8" />
            <feComposite in2="hardAlpha" operator="out" />
            <feColorMatrix type="matrix" values="0 0 0 0 0 0 0 0 0 0 0 0 0 0 0 0 0 0 0.1 0" />
            <feBlend mode="normal" in2="effect2_dropShadow_683_6757"
                result="effect3_dropShadow_683_6757" />
            <feBlend mode="normal" in="SourceGraphic" in2="effect3_dropShadow_683_6757"
                result="shape" />
        </filter>
        <filter id="filter3_ddd_683_6757" x="32" y="238.999" width="95" height="96"
            filterUnits="userSpaceOnUse" color-interpolation-filters="sRGB">
            <feFlood flood-opacity="0" result="BackgroundImageFix" />
            <feColorMatrix in="SourceAlpha" type="matrix"
                values="0 0 0 0 0 0 0 0 0 0 0 0 0 0 0 0 0 0 127 0" result="hardAlpha" />
            <feMorphology radius="2" operator="erode" in="SourceAlpha"
                result="effect1_dropShadow_683_6757" />
            <feOffset dy="2" />
            <feGaussianBlur stdDeviation="1.5" />
            <feComposite in2="hardAlpha" operator="out" />
            <feColorMatrix type="matrix" values="0 0 0 0 0 0 0 0 0 0 0 0 0 0 0.2 0 0 0 0.0588235 0" />
            <feBlend mode="normal" in2="BackgroundImageFix" result="effect1_dropShadow_683_6757" />
            <feColorMatrix in="SourceAlpha" type="matrix"
                values="0 0 0 0 0 0 0 0 0 0 0 0 0 0 0 0 0 0 127 0" result="hardAlpha" />
            <feMorphology radius="4" operator="erode" in="SourceAlpha"
                result="effect2_dropShadow_683_6757" />
            <feOffset dy="3" />
            <feGaussianBlur stdDeviation="6" />
            <feComposite in2="hardAlpha" operator="out" />
            <feColorMatrix type="matrix" values="0 0 0 0 0 0 0 0 0 0 0 0 0 0 0 0 0 0 0.1 0" />
            <feBlend mode="normal" in2="effect1_dropShadow_683_6757"
                result="effect2_dropShadow_683_6757" />
            <feColorMatrix in="SourceAlpha" type="matrix"
                values="0 0 0 0 0 0 0 0 0 0 0 0 0 0 0 0 0 0 127 0" result="hardAlpha" />
            <feMorphology radius="8" operator="erode" in="SourceAlpha"
                result="effect3_dropShadow_683_6757" />
            <feOffset dy="4" />
            <feGaussianBlur stdDeviation="8" />
            <feComposite in2="hardAlpha" operator="out" />
            <feColorMatrix type="matrix" values="0 0 0 0 0 0 0 0 0 0 0 0 0 0 0 0 0 0 0.1 0" />
            <feBlend mode="normal" in2="effect2_dropShadow_683_6757"
                result="effect3_dropShadow_683_6757" />
            <feBlend mode="normal" in="SourceGraphic" in2="effect3_dropShadow_683_6757"
                result="shape" />
        </filter>
        <filter id="filter4_ddd_683_6757" x="1065" y="238.999" width="95" height="96"
            filterUnits="userSpaceOnUse" color-interpolation-filters="sRGB">
            <feFlood flood-opacity="0" result="BackgroundImageFix" />
            <feColorMatrix in="SourceAlpha" type="matrix"
                values="0 0 0 0 0 0 0 0 0 0 0 0 0 0 0 0 0 0 127 0" result="hardAlpha" />
            <feMorphology radius="2" operator="erode" in="SourceAlpha"
                result="effect1_dropShadow_683_6757" />
            <feOffset dy="2" />
            <feGaussianBlur stdDeviation="1.5" />
            <feComposite in2="hardAlpha" operator="out" />
            <feColorMatrix type="matrix" values="0 0 0 0 0 0 0 0 0 0 0 0 0 0 0.2 0 0 0 0.0588235 0" />
            <feBlend mode="normal" in2="BackgroundImageFix" result="effect1_dropShadow_683_6757" />
            <feColorMatrix in="SourceAlpha" type="matrix"
                values="0 0 0 0 0 0 0 0 0 0 0 0 0 0 0 0 0 0 127 0" result="hardAlpha" />
            <feMorphology radius="4" operator="erode" in="SourceAlpha"
                result="effect2_dropShadow_683_6757" />
            <feOffset dy="3" />
            <feGaussianBlur stdDeviation="6" />
            <feComposite in2="hardAlpha" operator="out" />
            <feColorMatrix type="matrix" values="0 0 0 0 0 0 0 0 0 0 0 0 0 0 0 0 0 0 0.1 0" />
            <feBlend mode="normal" in2="effect1_dropShadow_683_6757"
                result="effect2_dropShadow_683_6757" />
            <feColorMatrix in="SourceAlpha" type="matrix"
                values="0 0 0 0 0 0 0 0 0 0 0 0 0 0 0 0 0 0 127 0" result="hardAlpha" />
            <feMorphology radius="8" operator="erode" in="SourceAlpha"
                result="effect3_dropShadow_683_6757" />
            <feOffset dy="4" />
            <feGaussianBlur stdDeviation="8" />
            <feComposite in2="hardAlpha" operator="out" />
            <feColorMatrix type="matrix" values="0 0 0 0 0 0 0 0 0 0 0 0 0 0 0 0 0 0 0.1 0" />
            <feBlend mode="normal" in2="effect2_dropShadow_683_6757"
                result="effect3_dropShadow_683_6757" />
            <feBlend mode="normal" in="SourceGraphic" in2="effect3_dropShadow_683_6757"
                result="shape" />
        </filter>
        <filter id="filter5_ddd_683_6757" x="1121" y="120.999" width="95" height="96"
            filterUnits="userSpaceOnUse" color-interpolation-filters="sRGB">
            <feFlood flood-opacity="0" result="BackgroundImageFix" />
            <feColorMatrix in="SourceAlpha" type="matrix"
                values="0 0 0 0 0 0 0 0 0 0 0 0 0 0 0 0 0 0 127 0" result="hardAlpha" />
            <feMorphology radius="2" operator="erode" in="SourceAlpha"
                result="effect1_dropShadow_683_6757" />
            <feOffset dy="2" />
            <feGaussianBlur stdDeviation="1.5" />
            <feComposite in2="hardAlpha" operator="out" />
            <feColorMatrix type="matrix" values="0 0 0 0 0 0 0 0 0 0 0 0 0 0 0.2 0 0 0 0.0588235 0" />
            <feBlend mode="normal" in2="BackgroundImageFix" result="effect1_dropShadow_683_6757" />
            <feColorMatrix in="SourceAlpha" type="matrix"
                values="0 0 0 0 0 0 0 0 0 0 0 0 0 0 0 0 0 0 127 0" result="hardAlpha" />
            <feMorphology radius="4" operator="erode" in="SourceAlpha"
                result="effect2_dropShadow_683_6757" />
            <feOffset dy="3" />
            <feGaussianBlur stdDeviation="6" />
            <feComposite in2="hardAlpha" operator="out" />
            <feColorMatrix type="matrix" values="0 0 0 0 0 0 0 0 0 0 0 0 0 0 0 0 0 0 0.1 0" />
            <feBlend mode="normal" in2="effect1_dropShadow_683_6757"
                result="effect2_dropShadow_683_6757" />
            <feColorMatrix in="SourceAlpha" type="matrix"
                values="0 0 0 0 0 0 0 0 0 0 0 0 0 0 0 0 0 0 127 0" result="hardAlpha" />
            <feMorphology radius="8" operator="erode" in="SourceAlpha"
                result="effect3_dropShadow_683_6757" />
            <feOffset dy="4" />
            <feGaussianBlur stdDeviation="8" />
            <feComposite in2="hardAlpha" operator="out" />
            <feColorMatrix type="matrix" values="0 0 0 0 0 0 0 0 0 0 0 0 0 0 0 0 0 0 0.1 0" />
            <feBlend mode="normal" in2="effect2_dropShadow_683_6757"
                result="effect3_dropShadow_683_6757" />
            <feBlend mode="normal" in="SourceGraphic" in2="effect3_dropShadow_683_6757"
                result="shape" />
        </filter>
        <filter id="filter6_ddd_683_6757" x="1065" y="-0.00141525" width="95" height="96"
            filterUnits="userSpaceOnUse" color-interpolation-filters="sRGB">
            <feFlood flood-opacity="0" result="BackgroundImageFix" />
            <feColorMatrix in="SourceAlpha" type="matrix"
                values="0 0 0 0 0 0 0 0 0 0 0 0 0 0 0 0 0 0 127 0" result="hardAlpha" />
            <feMorphology radius="2" operator="erode" in="SourceAlpha"
                result="effect1_dropShadow_683_6757" />
            <feOffset dy="2" />
            <feGaussianBlur stdDeviation="1.5" />
            <feComposite in2="hardAlpha" operator="out" />
            <feColorMatrix type="matrix" values="0 0 0 0 0 0 0 0 0 0 0 0 0 0 0.2 0 0 0 0.0588235 0" />
            <feBlend mode="normal" in2="BackgroundImageFix" result="effect1_dropShadow_683_6757" />
            <feColorMatrix in="SourceAlpha" type="matrix"
                values="0 0 0 0 0 0 0 0 0 0 0 0 0 0 0 0 0 0 127 0" result="hardAlpha" />
            <feMorphology radius="4" operator="erode" in="SourceAlpha"
                result="effect2_dropShadow_683_6757" />
            <feOffset dy="3" />
            <feGaussianBlur stdDeviation="6" />
            <feComposite in2="hardAlpha" operator="out" />
            <feColorMatrix type="matrix" values="0 0 0 0 0 0 0 0 0 0 0 0 0 0 0 0 0 0 0.1 0" />
            <feBlend mode="normal" in2="effect1_dropShadow_683_6757"
                result="effect2_dropShadow_683_6757" />
            <feColorMatrix in="SourceAlpha" type="matrix"
                values="0 0 0 0 0 0 0 0 0 0 0 0 0 0 0 0 0 0 127 0" result="hardAlpha" />
            <feMorphology radius="8" operator="erode" in="SourceAlpha"
                result="effect3_dropShadow_683_6757" />
            <feOffset dy="4" />
            <feGaussianBlur stdDeviation="8" />
            <feComposite in2="hardAlpha" operator="out" />
            <feColorMatrix type="matrix" values="0 0 0 0 0 0 0 0 0 0 0 0 0 0 0 0 0 0 0.1 0" />
            <feBlend mode="normal" in2="effect2_dropShadow_683_6757"
                result="effect3_dropShadow_683_6757" />
            <feBlend mode="normal" in="SourceGraphic" in2="effect3_dropShadow_683_6757"
                result="shape" />
        </filter>
        <filter id="filter7_ddd_683_6757" x="537" y="35.9997" width="142" height="143"
            filterUnits="userSpaceOnUse" color-interpolation-filters="sRGB">
            <feFlood flood-opacity="0" result="BackgroundImageFix" />
            <feColorMatrix in="SourceAlpha" type="matrix"
                values="0 0 0 0 0 0 0 0 0 0 0 0 0 0 0 0 0 0 127 0" result="hardAlpha" />
            <feMorphology radius="2" operator="erode" in="SourceAlpha"
                result="effect1_dropShadow_683_6757" />
            <feOffset dy="2" />
            <feGaussianBlur stdDeviation="1.5" />
            <feComposite in2="hardAlpha" operator="out" />
            <feColorMatrix type="matrix" values="0 0 0 0 0 0 0 0 0 0 0 0 0 0 0.2 0 0 0 0.0588235 0" />
            <feBlend mode="normal" in2="BackgroundImageFix" result="effect1_dropShadow_683_6757" />
            <feColorMatrix in="SourceAlpha" type="matrix"
                values="0 0 0 0 0 0 0 0 0 0 0 0 0 0 0 0 0 0 127 0" result="hardAlpha" />
            <feMorphology radius="4" operator="erode" in="SourceAlpha"
                result="effect2_dropShadow_683_6757" />
            <feOffset dy="3" />
            <feGaussianBlur stdDeviation="6" />
            <feComposite in2="hardAlpha" operator="out" />
            <feColorMatrix type="matrix" values="0 0 0 0 0 0 0 0 0 0 0 0 0 0 0 0 0 0 0.1 0" />
            <feBlend mode="normal" in2="effect1_dropShadow_683_6757"
                result="effect2_dropShadow_683_6757" />
            <feColorMatrix in="SourceAlpha" type="matrix"
                values="0 0 0 0 0 0 0 0 0 0 0 0 0 0 0 0 0 0 127 0" result="hardAlpha" />
            <feMorphology radius="8" operator="erode" in="SourceAlpha"
                result="effect3_dropShadow_683_6757" />
            <feOffset dy="4" />
            <feGaussianBlur stdDeviation="8" />
            <feComposite in2="hardAlpha" operator="out" />
            <feColorMatrix type="matrix" values="0 0 0 0 0 0 0 0 0 0 0 0 0 0 0 0 0 0 0.1 0" />
            <feBlend mode="normal" in2="effect2_dropShadow_683_6757"
                result="effect3_dropShadow_683_6757" />
            <feBlend mode="normal" in="SourceGraphic" in2="effect3_dropShadow_683_6757"
                result="shape" />
        </filter>
        <filter id="filter8_dd_683_6757" x="511" y="17.9997" width="194" height="191"
            filterUnits="userSpaceOnUse" color-interpolation-filters="sRGB">
            <feFlood flood-opacity="0" result="BackgroundImageFix" />
            <feColorMatrix in="SourceAlpha" type="matrix"
                values="0 0 0 0 0 0 0 0 0 0 0 0 0 0 0 0 0 0 127 0" result="hardAlpha" />
            <feOffset dy="12" />
            <feGaussianBlur stdDeviation="30" />
            <feComposite in2="hardAlpha" operator="out" />
            <feColorMatrix type="matrix" values="0 0 0 0 0 0 0 0 0 0 0 0 0 0 0 0 0 0 0.15 0" />
            <feBlend mode="normal" in2="BackgroundImageFix" result="effect1_dropShadow_683_6757" />
            <feColorMatrix in="SourceAlpha" type="matrix"
                values="0 0 0 0 0 0 0 0 0 0 0 0 0 0 0 0 0 0 127 0" result="hardAlpha" />
            <feMorphology radius="16" operator="erode" in="SourceAlpha"
                result="effect2_dropShadow_683_6757" />
            <feOffset dy="12" />
            <feGaussianBlur stdDeviation="16" />
            <feComposite in2="hardAlpha" operator="out" />
            <feColorMatrix type="matrix"
                values="0 0 0 0 1 0 0 0 0 0.501961 0 0 0 0 0.321569 0 0 0 0.121569 0" />
            <feBlend mode="normal" in2="effect1_dropShadow_683_6757"
                result="effect2_dropShadow_683_6757" />
            <feBlend mode="normal" in="SourceGraphic" in2="effect2_dropShadow_683_6757"
                result="shape" />
        </filter>
        <linearGradient id="paint0_linear_683_6757" x1="63" y1="89.2362" x2="104.766" y2="164.999"
            gradientUnits="userSpaceOnUse">
            <stop stop-color="#F1F1F1" />
            <stop offset="1" stop-color="#DADADA" />
        </linearGradient>
        <linearGradient id="paint1_linear_683_6757" x1="8" y1="203.236" x2="49.7664" y2="278.999"
            gradientUnits="userSpaceOnUse">
            <stop stop-color="#F1F1F1" />
            <stop offset="1" stop-color="#DADADA" />
        </linearGradient>
        <linearGradient id="paint2_linear_683_6757" x1="119" y1="242.236" x2="160.766" y2="317.999"
            gradientUnits="userSpaceOnUse">
            <stop stop-color="#F1F1F1" />
            <stop offset="1" stop-color="#DADADA" />
        </linearGradient>
        <linearGradient id="paint7_linear_683_6757" x1="40" y1="326.236" x2="81.7664" y2="401.999"
            gradientUnits="userSpaceOnUse">
            <stop stop-color="#F1F1F1" />
            <stop offset="1" stop-color="#DADADA" />
        </linearGradient>
        <linearGradient id="paint11_linear_683_6757" x1="1073" y1="326.236" x2="1114.77"
            y2="401.999" gradientUnits="userSpaceOnUse">
            <stop stop-color="#F1F1F1" />
            <stop offset="1" stop-color="#DADADA" />
        </linearGradient>
        <linearGradient id="paint12_linear_683_6757" x1="1097" y1="268.31" x2="1113.92" y2="298.999"
            gradientUnits="userSpaceOnUse">
            <stop stop-color="#F1F1F1" />
            <stop offset="1" stop-color="#DADADA" />
        </linearGradient>
        <linearGradient id="paint13_linear_683_6757" x1="1129" y1="208.236" x2="1170.77"
            y2="283.999" gradientUnits="userSpaceOnUse">
            <stop stop-color="#F1F1F1" />
            <stop offset="1" stop-color="#DADADA" />
        </linearGradient>
        <linearGradient id="paint14_linear_683_6757" x1="1073" y1="87.2363" x2="1114.77"
            y2="162.999" gradientUnits="userSpaceOnUse">
            <stop stop-color="#F1F1F1" />
            <stop offset="1" stop-color="#DADADA" />
        </linearGradient>
        <linearGradient id="paint15_linear_683_6757" x1="545" y1="46.1636" x2="611.615" y2="167"
            gradientUnits="userSpaceOnUse">
            <stop stop-color="#F1F1F1" />
            <stop offset="1" stop-color="#DADADA" />
        </linearGradient>
    </defs>
</svg>