<svg width="359" height="141" viewBox="0 0 359 141" fill="none" xmlns="http://www.w3.org/2000/svg">
<g clip-path="url(#clip0_881_600)">
<path d="M302.315 62H300.815V63.5V92.5V94H302.315H316.946C319.846 94 322.196 96.3505 322.196 99.25C322.196 102.149 319.846 104.5 316.946 104.5H307.305C303.712 104.5 300.266 105.933 297.733 108.481L292.836 113.404C290.866 115.386 288.186 116.5 285.391 116.5H254.58C248.826 116.5 244.146 111.807 244.146 106V50C244.146 44.1932 248.826 39.5 254.58 39.5H285.391C288.186 39.5 290.866 40.6142 292.836 42.596L297.733 47.5195C300.266 50.0674 303.712 51.5 307.305 51.5H316.946C319.846 51.5 322.196 53.8505 322.196 56.75C322.196 59.6495 319.846 62 316.946 62H302.315Z" fill="#FF8052" stroke="#EFEFEF" stroke-width="3"/>
<path d="M-0.00552368 111.5H133.534C138 111.5 140.226 106.091 137.054 102.948L120.505 86.5519C117.332 83.4088 119.558 78 124.024 78H242.646" stroke="#E0E0E0" stroke-width="6"/>
</g>
<defs>
<clipPath id="clip0_881_600">
<rect width="359" height="141" fill="white"/>
</clipPath>
</defs>
</svg>
