<svg width="359" height="141" viewBox="0 0 359 141" fill="none" xmlns="http://www.w3.org/2000/svg">
<rect x="20.5" y="37.5" width="77" height="77" rx="10.5" fill="#FF8052" stroke="#EFEFEF" stroke-width="3"/>
<path d="M99 59.5H233.301C237.774 59.5 239.996 54.0773 236.811 50.9384L220.189 34.5616C217.004 31.4227 219.226 26 223.699 26H358.5" stroke="#E0E0E0" stroke-width="2"/>
<path d="M99 69H233.695C238.152 69 240.381 63.6095 237.227 60.4611L220.272 43.5389C217.118 40.3905 219.347 35 223.804 35H359" stroke="#E0E0E0" stroke-width="2"/>
<path d="M99 79H233.695C238.152 79 240.381 73.6095 237.227 70.4611L220.272 53.5389C217.118 50.3905 219.347 45 223.804 45H359" stroke="#E0E0E0" stroke-width="2"/>
<path d="M99 89H233.695C238.152 89 240.381 83.6095 237.227 80.4611L220.272 63.5389C217.118 60.3905 219.347 55 223.804 55H359" stroke="#E0E0E0" stroke-width="2"/>
<path d="M99 99H233.695C238.152 99 240.381 93.6095 237.227 90.4611L220.272 73.5389C217.118 70.3905 219.347 65 223.804 65H359" stroke="#E0E0E0" stroke-width="2"/>
</svg>
