<svg width="480" height="257" viewBox="0 0 480 257" fill="none" xmlns="http://www.w3.org/2000/svg">
<rect width="480" height="257" rx="12" fill="#F5F5F5"/>
<path d="M90 199H146C152.075 199 157 203.925 157 210V256H79V210C79 203.925 83.9249 199 90 199Z" fill="#E0E0E0" stroke="#F5F5F5" stroke-width="2"/>
<rect x="79" y="159" width="78" height="78" rx="11" fill="#E0E0E0" stroke="#F5F5F5" stroke-width="2"/>
<rect x="79" y="129" width="78" height="78" rx="11" fill="#E0E0E0" stroke="#F5F5F5" stroke-width="2"/>
<rect x="79" y="104" width="78" height="78" rx="11" fill="#E0E0E0" stroke="#F5F5F5" stroke-width="2"/>
<rect x="79" y="89" width="78" height="78" rx="11" fill="#FF8052" stroke="#F5F5F5" stroke-width="2"/>
<rect x="101" y="111.5" width="33.33" height="33.33" rx="12" fill="#FF8052"/>
<path fill-rule="evenodd" clip-rule="evenodd" d="M117.665 113.833C118.217 113.833 118.665 114.281 118.665 114.833V130.195L123.624 125.236C124.015 124.845 124.648 124.845 125.038 125.236C125.429 125.626 125.429 126.259 125.038 126.65L118.372 133.316C117.982 133.706 117.349 133.706 116.958 133.316L110.292 126.65C109.902 126.259 109.902 125.626 110.292 125.236C110.683 124.845 111.316 124.845 111.706 125.236L116.665 130.195V114.833C116.665 114.281 117.113 113.833 117.665 113.833ZM106.555 133.72C107.169 133.72 107.666 134.217 107.666 134.831V138.164C107.666 139.395 108.656 140.386 109.88 140.386H125.445C126.671 140.386 127.664 139.392 127.664 138.164V134.831C127.664 134.217 128.161 133.72 128.775 133.72C129.388 133.72 129.886 134.217 129.886 134.831V138.164C129.886 140.617 127.9 142.608 125.445 142.608H109.88C107.422 142.608 105.444 140.615 105.444 138.164V134.831C105.444 134.217 105.941 133.72 106.555 133.72Z" fill="#F5F5F5"/>
<path d="M330 58H386C392.075 58 397 53.0751 397 47V1H319V47C319 53.0751 323.925 58 330 58Z" fill="#E0E0E0" stroke="#F5F5F5" stroke-width="2"/>
<rect x="1" y="-1" width="78" height="78" rx="11" transform="matrix(1 0 0 -1 318 97)" fill="#E0E0E0" stroke="#F5F5F5" stroke-width="2"/>
<rect x="1" y="-1" width="78" height="78" rx="11" transform="matrix(1 0 0 -1 318 127)" fill="#E0E0E0" stroke="#F5F5F5" stroke-width="2"/>
<rect x="1" y="-1" width="78" height="78" rx="11" transform="matrix(1 0 0 -1 318 152)" fill="#E0E0E0" stroke="#F5F5F5" stroke-width="2"/>
<rect x="318" y="88" width="80" height="80" rx="12" fill="#FF8052"/>
<rect width="33.3333" height="33.3333" transform="translate(342 111.333)" fill="#FF8052"/>
<path fill-rule="evenodd" clip-rule="evenodd" d="M359.374 113.96C358.983 113.569 358.35 113.569 357.96 113.96L351.293 120.626C350.902 121.017 350.902 121.65 351.293 122.041C351.684 122.431 352.317 122.431 352.707 122.041L357.667 117.081V132.444C357.667 132.997 358.115 133.444 358.667 133.444C359.219 133.444 359.667 132.997 359.667 132.444V117.081L364.626 122.041C365.017 122.431 365.65 122.431 366.04 122.041C366.431 121.65 366.431 121.017 366.04 120.626L359.374 113.96ZM347.556 133.555C348.169 133.555 348.667 134.053 348.667 134.667V138C348.667 139.231 349.657 140.222 350.881 140.222H366.447C367.673 140.222 368.667 139.228 368.667 138V134.667C368.667 134.053 369.164 133.555 369.778 133.555C370.391 133.555 370.889 134.053 370.889 134.667V138C370.889 140.453 368.903 142.444 366.447 142.444H350.881C348.423 142.444 346.444 140.451 346.444 138V134.667C346.444 134.053 346.942 133.555 347.556 133.555Z" fill="#F5F5F5"/>
</svg>
