<svg width="175" height="49" viewBox="0 0 175 49" fill="none" xmlns="http://www.w3.org/2000/svg">
<path d="M51.0855 38.4917V2.46347H57.5439V18.7513L56.2068 17.2501C57.3169 15.7656 58.6456 14.6397 60.1929 13.8724C61.7402 13.1052 63.4053 12.7215 65.1881 12.7215C67.5091 12.7215 69.4349 13.1802 70.9654 14.0976C72.5127 15.015 73.6732 16.2076 74.4469 17.6754C75.2206 19.1432 75.6074 20.6944 75.6074 22.3291V38.4917H69.1489V24.1555C69.1489 22.5042 68.636 21.1615 67.61 20.1273C66.6009 19.0932 65.2133 18.5761 63.4473 18.5761C62.27 18.5594 61.2357 18.8013 60.3443 19.3017C59.4529 19.8021 58.7633 20.5193 58.2755 21.4534C57.7878 22.3708 57.5439 23.4466 57.5439 24.6809V38.4917H51.0855Z" fill="#FF8052"/>
<path d="M86.2995 39.2423C84.584 39.2423 83.0619 38.9171 81.7332 38.2666C80.4045 37.6161 79.3617 36.6987 78.6049 35.5144C77.848 34.3135 77.4696 32.8957 77.4696 31.2611C77.4696 29.86 77.8228 28.609 78.5292 27.5081C79.2356 26.4073 80.3204 25.4982 81.7836 24.781C83.2469 24.0471 85.1138 23.555 87.3843 23.3048C89.6717 23.0546 92.3795 23.088 95.5078 23.4049L95.6087 27.6332C93.5568 27.3163 91.7656 27.1745 90.2351 27.2079C88.7046 27.2413 87.4348 27.4164 86.4256 27.7333C85.4333 28.0502 84.6849 28.4839 84.1803 29.0343C83.6926 29.5848 83.4487 30.2269 83.4487 30.9608C83.4487 32.0617 83.8523 32.9124 84.6597 33.5128C85.467 34.0966 86.5686 34.3885 87.9646 34.3885C89.1587 34.3885 90.2267 34.1717 91.1686 33.738C92.1272 33.3043 92.8841 32.6955 93.4391 31.9116C93.9941 31.111 94.2717 30.1685 94.2717 29.0844V22.7544C94.2717 21.7036 94.0446 20.7945 93.5905 20.0273C93.1532 19.2433 92.4804 18.6428 91.5722 18.2258C90.664 17.7922 89.4951 17.5753 88.0655 17.5753C86.7536 17.5753 85.4501 17.7755 84.1551 18.1758C82.8768 18.5594 81.6743 19.1599 80.5474 19.9772L78.8067 15.3986C80.4045 14.3478 82.0864 13.5972 83.8523 13.1469C85.6183 12.6965 87.3254 12.4713 88.9737 12.4713C91.3283 12.4713 93.3634 12.8383 95.079 13.5722C96.8113 14.3061 98.14 15.432 99.065 16.9498C100.007 18.451 100.478 20.3609 100.478 22.6793V38.4917H94.7762V35.6395C93.9353 36.7904 92.7748 37.6828 91.2947 38.3166C89.8146 38.9338 88.1496 39.2423 86.2995 39.2423Z" fill="#FF8052"/>
<path d="M102.321 49V13.4721H108.022V16.7747C108.998 15.5571 110.251 14.5813 111.781 13.8474C113.312 13.0968 115.162 12.7215 117.332 12.7215C119.77 12.7215 121.94 13.2886 123.84 14.4229C125.741 15.5571 127.229 17.125 128.306 19.1266C129.399 21.1114 129.946 23.3966 129.946 25.9819C129.946 27.8334 129.635 29.5597 129.012 31.161C128.39 32.7623 127.515 34.1717 126.389 35.3893C125.262 36.5903 123.916 37.5327 122.352 38.2165C120.805 38.9004 119.098 39.2423 117.231 39.2423C115.414 39.2423 113.8 38.9338 112.387 38.3166C110.991 37.6828 109.78 36.8238 108.754 35.7396V49H102.321ZM116.146 33.6379C117.575 33.6379 118.845 33.3294 119.955 32.7122C121.065 32.0784 121.94 31.1944 122.579 30.0601C123.218 28.9092 123.538 27.5498 123.538 25.9819C123.538 24.414 123.218 23.0546 122.579 21.9037C121.94 20.7528 121.057 19.8688 119.93 19.2516C118.82 18.6345 117.559 18.3259 116.146 18.3259C114.716 18.3259 113.446 18.6345 112.336 19.2516C111.226 19.8688 110.352 20.7528 109.713 21.9037C109.073 23.0546 108.754 24.414 108.754 25.9819C108.754 27.5498 109.065 28.9092 109.687 30.0601C110.326 31.1944 111.201 32.0784 112.311 32.7122C113.438 33.3294 114.716 33.6379 116.146 33.6379Z" fill="#F5F5F5"/>
<path d="M131.753 38.4917V13.4721H138.212V16.7497C139.086 15.2819 140.179 14.2394 141.491 13.6222C142.82 13.0051 144.25 12.6965 145.78 12.6965C146.318 12.6965 146.814 12.7215 147.269 12.7716C147.723 12.8216 148.16 12.8967 148.58 12.9967L147.773 19.6019C147.252 19.4184 146.705 19.285 146.133 19.2016C145.578 19.1015 145.023 19.0515 144.468 19.0515C142.652 19.0515 141.155 19.5936 139.978 20.6778C138.8 21.7453 138.212 23.2465 138.212 25.1813V38.4917H131.753Z" fill="#F5F5F5"/>
<path d="M161.2 39.2423C158.509 39.2423 156.121 38.6419 154.035 37.4409C151.967 36.2233 150.343 34.6137 149.166 32.6121C147.989 30.5939 147.4 28.3838 147.4 25.9819C147.4 24.2139 147.737 22.5292 148.409 20.928C149.082 19.3267 150.032 17.9173 151.26 16.6996C152.505 15.4653 153.968 14.4979 155.65 13.7974C157.332 13.0801 159.182 12.7215 161.2 12.7215C163.874 12.7215 166.246 13.322 168.314 14.5229C170.4 15.7239 172.031 17.3335 173.209 19.3517C174.403 21.37 175 23.58 175 25.9819C175 27.75 174.655 29.4346 173.966 31.0359C173.293 32.6205 172.343 34.0299 171.115 35.2642C169.887 36.4985 168.432 37.4743 166.75 38.1915C165.068 38.8921 163.218 39.2423 161.2 39.2423ZM161.175 33.6379C162.604 33.6379 163.874 33.3294 164.984 32.7122C166.111 32.0784 166.994 31.1944 167.633 30.0601C168.272 28.9092 168.592 27.5498 168.592 25.9819C168.592 24.414 168.272 23.0546 167.633 21.9037C166.994 20.7528 166.12 19.8688 165.01 19.2516C163.9 18.6345 162.63 18.3259 161.2 18.3259C159.77 18.3259 158.492 18.6345 157.365 19.2516C156.255 19.8688 155.381 20.7528 154.742 21.9037C154.119 23.0546 153.808 24.414 153.808 25.9819C153.808 27.5498 154.128 28.9092 154.767 30.0601C155.406 31.1944 156.281 32.0784 157.391 32.7122C158.501 33.3294 159.762 33.6379 161.175 33.6379Z" fill="#F5F5F5"/>
<path d="M21.9672 0.719954L38.5809 16.9847V16.9861C39.5631 17.9477 40.3653 19.8446 40.3653 21.203V31.133C40.3653 31.133 38.0477 31.133 35.537 31.133C33.0262 31.133 31.8674 33.0199 31.8674 34.7181C31.8674 36.4162 31.8674 38.4901 31.8674 38.4901H2.52283C1.13528 38.4901 0 37.3787 0 36.0203V21.2013C0 19.8429 0.803944 17.9446 1.78449 16.9847L18.3999 0.719954C19.3804 -0.239985 20.9866 -0.239985 21.9672 0.719954Z" fill="#F5F5F5"/>
<path d="M40.3653 32.6425V36.2275C40.3653 37.478 39.3277 38.4917 38.0477 38.4917H33.4125V34.9067C33.4125 33.6562 34.4501 32.6425 35.7301 32.6425H40.3653Z" fill="#FF8052"/>
<path d="M28.7215 23.2875C28.7215 28.0707 24.8117 31.9482 19.9886 31.9482C15.1656 31.9482 11.2557 28.0707 11.2557 23.2875C11.2557 18.5044 15.1656 14.6269 19.9886 14.6269C24.8117 14.6269 28.7215 18.5044 28.7215 23.2875Z" fill="#251E1C"/>
</svg>
